<svg xmlns="http://www.w3.org/2000/svg" xml:space="preserve" width="200px" height="200px" version="1.1" style="shape-rendering:geometricPrecision; text-rendering:geometricPrecision; image-rendering:optimizeQuality; fill-rule:evenodd; clip-rule:evenodd" viewBox="0 0 197.1 197.1" xmlns:xlink="http://www.w3.org/1999/xlink">
<defs>
<style type="text/css">
.fil0 {fill:#2F2F2F}
.fil1 {fill:#5DECAA}
</style>
</defs>
<g id="Layer_x0020_1">
<g id="_2001008745744">
<rect class="fil0" width="197.1" height="197.1"/>
<g>
<path class="fil1" d="M46.52 87.19l9.99 0c1.39,0 2.53,-1.14 2.53,-2.53l0 -10c0,-1.39 -1.14,-2.53 -2.53,-2.53l-9.99 0c-1.4,0 -2.53,1.14 -2.53,2.53l0 10c0,1.39 1.13,2.53 2.53,2.53zm65.84 3.76c-1.39,0 -2.53,1.14 -2.53,2.54l0 9.98c0,1.4 1.14,2.54 2.53,2.54l10 0c1.4,0 2.53,-1.14 2.53,-2.54l0 -9.98c0,-1.4 -1.13,-2.54 -2.53,-2.54l-10 0zm-21.34 2.53l0 9.99c0,1.39 1.14,2.54 2.54,2.54l9.98 0c1.4,0 2.53,-1.14 2.53,-2.54l0 -9.98c0,-1.4 -1.13,-2.54 -2.53,-2.54l-9.98 0c-1.4,0 -2.54,1.14 -2.54,2.53zm59.56 -2.53l-19.43 0c-1.4,0 -2.54,1.14 -2.54,2.54l0 9.98c0,1.4 1.14,2.54 2.54,2.54l19.43 0c1.39,0 2.54,-1.14 2.54,-2.54l0 -9.98c0,-1.4 -1.15,-2.54 -2.54,-2.54zm-104.06 15.05l19.43 0c1.4,0 2.53,-1.14 2.53,-2.54l0 -9.98c0,-1.4 -1.13,-2.53 -2.53,-2.53l-19.43 0c-1.4,0 -2.53,1.13 -2.53,2.53l0 9.98c0,1.4 1.13,2.54 2.53,2.54zm28.22 -15.05c-1.39,0 -2.53,1.14 -2.53,2.54l0 9.98c0,1.4 1.14,2.54 2.53,2.54l9.99 0c1.4,0 2.54,-1.14 2.54,-2.54l0 -9.98c0,-1.4 -1.14,-2.54 -2.54,-2.54l-9.99 0zm75.84 18.97l-9.99 0c-1.4,0 -2.53,1.14 -2.53,2.53l0 9.99c0,1.39 1.13,2.53 2.53,2.53l9.99 0c1.39,0 2.54,-1.14 2.54,-2.54l0 -9.98c0,-1.39 -1.15,-2.53 -2.54,-2.53zm-18.83 0l-66.41 0c-1.4,0 -2.53,1.14 -2.53,2.53l0 9.99c0,1.39 1.13,2.53 2.53,2.53l66.42 0c1.4,0 2.53,-1.14 2.53,-2.54l0 -9.98c0,-1.39 -1.14,-2.53 -2.54,-2.53zm-75.24 0l-9.99 0c-1.4,0 -2.53,1.14 -2.53,2.53l0 9.99c0,1.39 1.13,2.53 2.53,2.53l9.99 0c1.39,0 2.53,-1.14 2.53,-2.54l0 -9.98c0,-1.39 -1.14,-2.53 -2.53,-2.53zm94.07 -37.79l-9.99 0c-1.4,0 -2.53,1.15 -2.53,2.54l0 9.99c0,1.39 1.13,2.53 2.53,2.53l9.99 0c1.39,0 2.54,-1.14 2.54,-2.53l0 -9.99c0,-1.4 -1.15,-2.54 -2.54,-2.54zm-28.79 15.06l9.98 0c1.39,0 2.52,-1.14 2.52,-2.53l0 -10c0,-1.39 -1.13,-2.53 -2.52,-2.53l-9.98 0c-1.41,0 -2.54,1.14 -2.54,2.53l0 10c0,1.39 1.13,2.53 2.54,2.53zm-18.83 0l9.99 0c1.39,0 2.53,-1.14 2.53,-2.53l0 -10c0,-1.39 -1.14,-2.53 -2.53,-2.53l-9.99 0c-1.4,0 -2.53,1.14 -2.53,2.53l0 10c0,1.39 1.14,2.53 2.53,2.53zm-18.81 0l9.99 0c1.39,0 2.53,-1.14 2.53,-2.53l0 -10c0,-1.39 -1.14,-2.53 -2.53,-2.53l-9.99 0c-1.4,0 -2.53,1.14 -2.53,2.53l0 10c0,1.39 1.13,2.53 2.53,2.53zm-18.81 0l9.98 0c1.4,0 2.54,-1.14 2.54,-2.53l0 -10c0,-1.39 -1.14,-2.53 -2.54,-2.53l-9.98 0c-1.4,0 -2.53,1.14 -2.53,2.53l0 10c0,1.39 1.13,2.53 2.53,2.53z"/>
<path class="fil1" d="M157.81 61.44l-118.52 0c-6.18,0 -11.21,5.03 -11.21,11.22l0 51.8c0,6.17 5.03,11.2 11.21,11.2l118.52 0c6.18,0 11.21,-5.03 11.21,-11.2l0 -51.8c0.01,-6.19 -5.02,-11.22 -11.21,-11.22zm6.16 63.02c0,3.39 -2.77,6.14 -6.16,6.14l-118.52 0c-3.39,0 -6.15,-2.76 -6.15,-6.14l0 -51.8c0,-3.4 2.76,-6.15 6.15,-6.15l118.52 0c3.39,0 6.15,2.76 6.15,6.15l0.01 51.8 0 0z"/>
</g>
</g>
</g>
</svg>