<svg xmlns="http://www.w3.org/2000/svg" xml:space="preserve" width="200px" height="200px" version="1.1" style="shape-rendering:geometricPrecision; text-rendering:geometricPrecision; image-rendering:optimizeQuality; fill-rule:evenodd; clip-rule:evenodd" viewBox="0 0 158.76 158.76" xmlns:xlink="http://www.w3.org/1999/xlink">
<defs>
<style type="text/css">
.fil0 {fill:#2F2F2F}
.fil1 {fill:#5DECAA}
</style>
</defs>
<g id="Layer_x0020_1">
<g id="_2001058642160">
<rect class="fil0" width="158.76" height="158.76"/>
<g>
<path class="fil1" d="M60.2 62.71l8.05 0c1.12,0 2.04,-0.92 2.04,-2.04l0 -8.05c0,-1.12 -0.92,-2.04 -2.04,-2.04l-8.05 0c-1.12,0 -2.04,0.92 -2.04,2.04l0 8.05c0,1.12 0.92,2.04 2.04,2.04zm0 45.47l15.62 0c1.13,0 2.04,-0.92 2.04,-2.04l0 -8.05c0,-1.12 -0.91,-2.04 -2.04,-2.04l-15.62 0c-1.12,0 -2.04,0.92 -2.04,2.04l0 8.05c0,1.13 0.92,2.04 2.04,2.04zm22.74 0l15.62 0c1.12,0 2.04,-0.92 2.04,-2.04l0 -8.05c0,-1.12 -0.92,-2.04 -2.04,-2.04l-15.62 0c-1.13,0 -2.05,0.92 -2.05,2.04l0 8.05c0,1.13 0.92,2.04 2.05,2.04zm-22.74 -15.16l8.05 0c1.12,0 2.04,-0.91 2.04,-2.04l0 -8.04c0,-1.13 -0.92,-2.04 -2.04,-2.04l-8.05 0c-1.12,0 -2.04,0.92 -2.04,2.04l0 8.05c0,1.12 0.92,2.03 2.04,2.03zm15.16 0l8.04 0c1.12,0 2.04,-0.91 2.04,-2.04l0 -8.04c0,-1.13 -0.92,-2.04 -2.04,-2.04l-8.04 0c-1.13,0 -2.04,0.92 -2.04,2.04l0 8.05c0,1.12 0.91,2.03 2.04,2.03zm15.15 0l8.05 0c1.12,0 2.04,-0.91 2.04,-2.04l0 -8.04c0,-1.13 -0.92,-2.04 -2.04,-2.04l-8.05 0c-1.12,0 -2.04,0.92 -2.04,2.04l0 8.05c0,1.12 0.92,2.03 2.04,2.03zm-30.31 -15.15l8.05 0c1.12,0 2.04,-0.92 2.04,-2.04l0 -8.05c0,-1.12 -0.92,-2.04 -2.04,-2.04l-8.05 0c-1.12,0 -2.04,0.92 -2.04,2.04l0 8.05c0,1.12 0.92,2.04 2.04,2.04zm15.16 0l8.04 0c1.12,0 2.04,-0.92 2.04,-2.04l0 -8.05c0,-1.12 -0.92,-2.04 -2.04,-2.04l-8.04 0c-1.13,0 -2.04,0.92 -2.04,2.04l0 8.05c0,1.12 0.91,2.04 2.04,2.04zm15.15 0l8.05 0c1.12,0 2.04,-0.92 2.04,-2.04l0 -8.05c0,-1.12 -0.92,-2.04 -2.04,-2.04l-8.05 0c-1.12,0 -2.04,0.92 -2.04,2.04l0 8.05c0,1.12 0.92,2.04 2.04,2.04zm-15.15 -15.16l8.04 0c1.12,0 2.04,-0.92 2.04,-2.04l0 -8.05c0,-1.12 -0.92,-2.04 -2.04,-2.04l-8.04 0c-1.13,0 -2.04,0.92 -2.04,2.04l0 8.05c0,1.12 0.91,2.04 2.04,2.04zm15.15 0l8.05 0c1.12,0 2.04,-0.92 2.04,-2.04l0 -8.05c0,-1.12 -0.92,-2.04 -2.04,-2.04l-8.05 0c-1.12,0 -2.04,0.92 -2.04,2.04l0 8.05c0,1.12 0.92,2.04 2.04,2.04z"/>
<path class="fil1" d="M104.39 41.97l-50.02 0c-4.98,0 -9.03,4.05 -9.03,9.04l0 56.75c0,4.98 4.05,9.03 9.03,9.03l50.02 0c4.98,0 9.03,-4.05 9.03,-9.03l0 -56.75c0,-4.99 -4.05,-9.04 -9.03,-9.04zm4.95 65.79c0,2.74 -2.23,4.95 -4.95,4.95l-50.02 0c-2.73,0 -4.95,-2.22 -4.95,-4.95l0 -56.75c0,-2.74 2.23,-4.96 4.95,-4.96l50.02 0c2.73,0 4.95,2.23 4.95,4.96l0 56.75 0 0z"/>
</g>
</g>
</g>
</svg>