<svg xmlns="http://www.w3.org/2000/svg" xml:space="preserve" width="200px" height="200px" version="1.1" style="shape-rendering:geometricPrecision; text-rendering:geometricPrecision; image-rendering:optimizeQuality; fill-rule:evenodd; clip-rule:evenodd" viewBox="0 0 60.81 60.81" xmlns:xlink="http://www.w3.org/1999/xlink">
<defs>
<style type="text/css">
.fil0 {fill:#2F2F2F}
.fil1 {fill:#5DECAA}
</style>
</defs>
<g id="Layer_x0020_1">
<g id="_2001008733200">
<rect class="fil0" width="60.81" height="60.81"/>
<g>
<path class="fil1" d="M14.35 30.56l3.08 0c0.43,0 0.78,-0.35 0.78,-0.78l0 -3.08c0,-0.43 -0.35,-0.78 -0.78,-0.78l-3.08 0c-0.43,0 -0.78,0.35 -0.78,0.78l0 3.08c0,0.43 0.35,0.78 0.78,0.78zm-1.77 -5.94c-0.03,0 -0.05,-0.02 -0.05,-0.05 0,-0.02 0.02,-0.04 0.05,-0.04l35.64 0c0.03,0 0.05,0.02 0.05,0.04 0,0.03 -0.02,0.05 -0.05,0.05l-35.64 0zm16.28 -6.03c-0.43,0 -0.78,0.35 -0.78,0.78l0 3.08c0,0.43 0.35,0.78 0.78,0.78l3.09 0c0.43,0 0.78,-0.35 0.78,-0.78l0 -3.08c0,-0.43 -0.35,-0.78 -0.78,-0.78l-3.09 0zm5.03 0.78l0 3.08c0,0.43 0.35,0.78 0.78,0.78l3.08 0c0.43,0 0.78,-0.35 0.78,-0.78l0 -3.08c0,-0.43 -0.35,-0.78 -0.78,-0.78l-3.08 0c-0.43,0 -0.78,0.35 -0.78,0.78zm6.58 -0.78c-0.43,0 -0.78,0.35 -0.78,0.78l0 3.08c0,0.43 0.35,0.78 0.78,0.78l3.08 0c0.44,0 0.78,-0.35 0.78,-0.78l0 -3.08c0,-0.43 -0.34,-0.78 -0.78,-0.78l-3.08 0zm-17.41 0c-0.43,0 -0.78,0.35 -0.78,0.78l0 3.08c0,0.43 0.35,0.78 0.78,0.78l3.08 0c0.43,0 0.78,-0.35 0.78,-0.78l0 -3.08c0,-0.43 -0.35,-0.78 -0.78,-0.78l-3.08 0zm-5.81 0c-0.43,0 -0.78,0.35 -0.78,0.78l0 3.08c0,0.43 0.35,0.78 0.78,0.78l3.09 0c0.43,0 0.78,-0.35 0.78,-0.78l0 -3.08c0,-0.43 -0.35,-0.78 -0.78,-0.78l-3.09 0zm11.61 13.13c-0.43,0 -0.78,0.36 -0.78,0.79l0 3.08c0,0.43 0.35,0.78 0.78,0.78l3.09 0c0.43,0 0.78,-0.35 0.78,-0.78l0 -3.08c0,-0.43 -0.35,-0.79 -0.78,-0.79l-3.09 0zm5.03 0.79l0 3.08c0,0.43 0.35,0.78 0.78,0.78l3.08 0c0.43,0 0.78,-0.35 0.78,-0.78l0 -3.08c0,-0.43 -0.35,-0.79 -0.78,-0.79l-3.08 0c-0.43,0 -0.78,0.35 -0.78,0.79zm6.58 -0.79c-0.43,0 -0.78,0.36 -0.78,0.79l0 3.08c0,0.43 0.35,0.78 0.78,0.78l3.08 0c0.44,0 0.78,-0.35 0.78,-0.78l0 -3.08c0,-0.43 -0.34,-0.79 -0.78,-0.79l-3.08 0zm-17.41 0c-0.43,0 -0.78,0.36 -0.78,0.79l0 3.08c0,0.43 0.35,0.78 0.78,0.78l3.08 0c0.43,0 0.78,-0.35 0.78,-0.78l0 -3.08c0,-0.43 -0.35,-0.79 -0.78,-0.79l-3.08 0zm-5.81 0c-0.43,0 -0.78,0.36 -0.78,0.79l0 3.08c0,0.43 0.35,0.78 0.78,0.78l3.09 0c0.43,0 0.78,-0.35 0.78,-0.78l0 -3.08c0,-0.43 -0.35,-0.79 -0.78,-0.79l-3.09 0zm29.2 5.86l-3.08 0c-0.43,0 -0.78,0.35 -0.78,0.78l0 3.08c0,0.43 0.35,0.78 0.78,0.78l3.08 0c0.43,0 0.79,-0.35 0.79,-0.78l0 -3.08c0,-0.43 -0.36,-0.78 -0.79,-0.78zm-29.02 0l-3.08 0c-0.43,0 -0.78,0.35 -0.78,0.78l0 3.08c0,0.43 0.35,0.78 0.78,0.78l3.08 0c0.43,0 0.78,-0.35 0.78,-0.78l0 -3.08c0,-0.43 -0.35,-0.78 -0.78,-0.78zm23.22 0l-20.49 0c-0.43,0 -0.78,0.35 -0.78,0.78l0 3.08c0,0.43 0.35,0.78 0.78,0.78l20.49 0c0.43,0 0.78,-0.35 0.78,-0.78l0 -3.08c0,-0.43 -0.35,-0.78 -0.78,-0.78zm5.8 -11.66l-3.08 0c-0.43,0 -0.78,0.35 -0.78,0.78l0 3.08c0,0.43 0.35,0.79 0.78,0.79l3.08 0c0.43,0 0.79,-0.36 0.79,-0.79l0 -3.08c0,-0.43 -0.36,-0.78 -0.79,-0.78zm-8.88 4.64l3.08 0c0.43,0 0.78,-0.35 0.78,-0.78l0 -3.08c0,-0.43 -0.35,-0.78 -0.78,-0.78l-3.08 0c-0.43,0 -0.78,0.35 -0.78,0.78l0 3.08c0,0.43 0.35,0.78 0.78,0.78zm-5.81 0l3.08 0c0.44,0 0.79,-0.35 0.79,-0.78l0 -3.08c0,-0.43 -0.35,-0.78 -0.79,-0.78l-3.08 0c-0.43,0 -0.78,0.35 -0.78,0.78l0 3.08c0,0.43 0.35,0.78 0.78,0.78zm-5.8 0l3.08 0c0.43,0 0.78,-0.35 0.78,-0.78l0 -3.08c0,-0.43 -0.35,-0.78 -0.78,-0.78l-3.08 0c-0.43,0 -0.78,0.35 -0.78,0.78l0 3.08c0,0.43 0.35,0.78 0.78,0.78zm-5.8 0l3.08 0c0.43,0 0.78,-0.35 0.78,-0.78l0 -3.08c0,-0.43 -0.35,-0.78 -0.78,-0.78l-3.08 0c-0.43,0 -0.78,0.35 -0.78,0.78l0 3.08c0,0.43 0.35,0.78 0.78,0.78z"/>
<path class="fil1" d="M48.69 15.29l-36.57 0c-1.91,0 -3.46,1.55 -3.46,3.46l0 23.31c0,1.91 1.55,3.46 3.46,3.46l36.57 0c1.9,0 3.45,-1.55 3.45,-3.46l0 -23.31c0,-1.91 -1.55,-3.46 -3.45,-3.46zm1.89 26.77c0,1.05 -0.85,1.9 -1.89,1.9l-36.57 0c-1.05,0 -1.9,-0.85 -1.9,-1.9l0 -23.31c0,-1.05 0.86,-1.9 1.9,-1.9l36.57 0c1.04,0 1.89,0.85 1.89,1.9l0 23.31 0 0z"/>
</g>
</g>
</g>
</svg>