<svg xmlns="http://www.w3.org/2000/svg" xml:space="preserve" width="1024px" height="850px" version="1.1" style="shape-rendering:geometricPrecision; text-rendering:geometricPrecision; image-rendering:optimizeQuality; fill-rule:evenodd; clip-rule:evenodd" viewBox="0 0 1024 850" xmlns:xlink="http://www.w3.org/1999/xlink">
<defs>
<style type="text/css">

.fil11 {fill:#57D79C}
.fil5 {fill:#F7F7F7;opacity:.4;}
.fil12 {fill:#FEFEFE}
.fil3 {fill:#fff;opacity:.8;}
.fil7 {fill:#2F2F2F;fill-rule:nonzero}
.fil9 {fill:#57D79C;fill-rule:nonzero}
.fil6 {fill:#5DECAA;fill-rule:nonzero}
.fil8 {fill:#6E6E6E;fill-rule:nonzero}
.fil4 {fill:#9C9C9C;fill-rule:nonzero}
.fil0 {fill:#B8BBB8;fill-rule:nonzero}
.fil1 {fill:#C7CAC6;fill-rule:nonzero}
.fil10 {fill:#F1CBB4;fill-rule:nonzero}
.fil2 {fill:url(#id0);fill-rule:nonzero}
</style>
<linearGradient id="id0" gradientUnits="userSpaceOnUse" x1="391" y1="570.58" x2="690.19" y2="104.28">
<stop offset="0" style="stop-opacity:1; stop-color:whitesmoke"/>
<stop offset="1" style="stop-opacity:1; stop-color:white"/>
</linearGradient>
</defs>
<g>
<g>
<g>
<path class="fil0" d="M103.63 302.97c-3.78,-2.18 -7.56,-4.18 -7.55,-7.04l0.14 18.92c0.02,2.86 1.88,5.73 5.65,7.9l497.53 287.25c7.5,4.33 19.7,4.31 27.11,-0.01l353.22 -205.26c2.79,-1.63 5.56,-4.35 5.56,-7.79l-0.29 -19.79c-0.01,3.43 -2.78,6.17 -5.57,7.79l-875.8 -81.97z"/>
<path class="fil1" d="M979.48 370.57c7.5,4.33 7.54,11.37 0.08,15.7l-353.21 205.26c-7.47,4.34 -19.61,4.34 -27.11,0.01l-497.53 -287.25c-7.5,-4.33 -7.54,-11.36 -0.07,-15.7l353.21 -205.27c7.45,-4.33 19.59,-4.33 27.1,0l497.53 287.25z"/>
<path class="fil2" d="M920.06 360.35c1.81,1.05 1.82,2.75 0.02,3.8l-332.13 193.01c-1.8,1.04 -4.72,1.04 -6.53,-0.01l-420.27 -242.65c-1.82,-1.04 -1.84,-2.74 -0.04,-3.78l332.12 -193.01c1.8,-1.05 4.74,-1.05 6.55,0l420.28 242.64z"/>
</g>
<g>
<g>
<path class="fil3" d="M552.08 374.18c13.91,8.03 21.58,29.12 17.04,46.85l-67.11 261.94c-4.55,17.73 -19.65,25.67 -33.56,17.64l-358.97 -207.25c-13.93,-8.04 -23.19,-22.92 -18.65,-40.65l68.71 -268.15c4.54,-17.73 19.65,-25.67 33.58,-17.62l358.96 207.24z"/>
<path id="1" class="fil4" d="M570.82 421.47l-3.4 -0.87 0 0 0.37 -1.6 0.31 -1.62 0.24 -1.63 0.17 -1.64 0.11 -1.66 0.05 -1.65 -0.02 -1.66 -0.07 -1.67 -0.14 -1.65 -0.2 -1.65 -0.25 -1.64 -0.32 -1.63 -0.37 -1.62 -0.42 -1.59 -0.48 -1.57 -0.53 -1.55 -0.58 -1.52 -0.64 -1.48 -0.68 -1.46 -0.73 -1.41 -0.78 -1.38 -0.82 -1.33 -0.87 -1.29 -0.91 -1.23 -0.95 -1.18 -0.99 -1.13 -1.04 -1.07 -1.06 -1.01 -1.11 -0.95 -1.14 -0.88 -1.16 -0.81 -1.21 -0.74 1.76 -3.04 1.37 0.84 1.32 0.92 1.28 0.99 1.24 1.06 1.19 1.12 1.14 1.19 1.09 1.24 1.05 1.31 1 1.35 0.95 1.4 0.89 1.45 0.85 1.5 0.79 1.53 0.74 1.57 0.68 1.6 0.63 1.64 0.57 1.67 0.52 1.69 0.45 1.71 0.4 1.73 0.34 1.75 0.27 1.77 0.21 1.77 0.15 1.79 0.09 1.79 0.01 1.79 -0.05 1.79 -0.12 1.79 -0.19 1.78 -0.26 1.77 -0.33 1.76 -0.41 1.75 0 0zm0 0c-0.24,0.94 -1.2,1.5 -2.14,1.26 -0.94,-0.24 -1.5,-1.19 -1.26,-2.13l3.4 0.87zm-70.52 261.06l67.12 -261.93 3.4 0.87 -67.11 261.94 0 0 -3.41 -0.88zm3.41 0.88c-0.24,0.94 -1.2,1.5 -2.14,1.26 -0.94,-0.24 -1.51,-1.2 -1.27,-2.14l3.41 0.88zm-36.14 18.72l1.75 -3.04 0 0 1.22 0.65 1.22 0.58 1.22 0.48 1.21 0.4 1.21 0.31 1.2 0.24 1.19 0.15 1.19 0.08 1.17 0 1.15 -0.08 1.15 -0.15 1.13 -0.23 1.11 -0.3 1.1 -0.37 1.08 -0.44 1.05 -0.51 1.04 -0.59 1 -0.65 0.99 -0.73 0.95 -0.79 0.92 -0.86 0.89 -0.93 0.86 -0.99 0.81 -1.06 0.78 -1.13 0.74 -1.19 0.69 -1.25 0.65 -1.32 0.59 -1.38 0.55 -1.44 0.49 -1.5 0.43 -1.56 3.41 0.88 -0.48 1.7 -0.54 1.65 -0.6 1.59 -0.66 1.53 -0.72 1.47 -0.78 1.41 -0.83 1.34 -0.88 1.27 -0.93 1.21 -0.98 1.14 -1.02 1.06 -1.07 1 -1.11 0.92 -1.15 0.85 -1.18 0.76 -1.22 0.69 -1.26 0.61 -1.28 0.53 -1.31 0.44 -1.33 0.36 -1.35 0.27 -1.38 0.19 -1.39 0.09 -1.4 0 -1.41 -0.09 -1.41 -0.18 -1.42 -0.28 -1.42 -0.37 -1.42 -0.47 -1.41 -0.56 -1.41 -0.66 -1.39 -0.75 0 0zm0 0c-0.84,-0.49 -1.13,-1.56 -0.65,-2.4 0.49,-0.84 1.56,-1.13 2.4,-0.64l-1.75 3.04zm-357.21 -210.29l358.96 207.25 -1.75 3.04 -358.97 -207.25 0 0 1.76 -3.04zm-1.76 3.04c-0.84,-0.48 -1.12,-1.56 -0.64,-2.4 0.49,-0.84 1.56,-1.13 2.4,-0.64l-1.76 3.04zm-19.47 -42.61l3.41 0.87 0 0 -0.37 1.58 -0.3 1.56 -0.21 1.54 -0.15 1.52 -0.07 1.5 -0.01 1.48 0.06 1.46 0.13 1.43 0.19 1.42 0.25 1.39 0.32 1.37 0.37 1.34 0.43 1.33 0.48 1.3 0.55 1.27 0.59 1.25 0.65 1.22 0.69 1.2 0.75 1.17 0.79 1.14 0.85 1.11 0.88 1.08 0.93 1.05 0.97 1.03 1.01 0.99 1.04 0.95 1.09 0.93 1.12 0.89 1.15 0.85 1.18 0.82 1.22 0.78 1.24 0.75 -1.76 3.04 -1.34 -0.8 -1.31 -0.85 -1.28 -0.88 -1.24 -0.92 -1.22 -0.97 -1.17 -1 -1.14 -1.04 -1.1 -1.08 -1.06 -1.11 -1.01 -1.16 -0.97 -1.18 -0.92 -1.22 -0.87 -1.26 -0.82 -1.28 -0.77 -1.32 -0.72 -1.36 -0.66 -1.38 -0.6 -1.41 -0.54 -1.44 -0.48 -1.47 -0.41 -1.5 -0.35 -1.52 -0.28 -1.56 -0.21 -1.57 -0.14 -1.6 -0.07 -1.61 0 -1.64 0.09 -1.66 0.16 -1.68 0.24 -1.7 0.32 -1.71 0.4 -1.73 0 0zm0 0c0.24,-0.94 1.2,-1.51 2.14,-1.27 0.94,0.24 1.51,1.2 1.27,2.14l-3.41 -0.87zm72.11 -267.27l-68.7 268.14 -3.41 -0.87 68.71 -268.15 3.4 0.88zm-3.4 -0.88c0.24,-0.93 1.19,-1.5 2.13,-1.26 0.94,0.24 1.51,1.2 1.27,2.14l-3.4 -0.88zm36.16 -18.71l-1.76 3.05 0 0 -1.22 -0.66 -1.22 -0.57 -1.22 -0.49 -1.22 -0.4 -1.21 -0.31 -1.2 -0.24 -1.19 -0.15 -1.19 -0.08 -1.17 0 -1.16 0.08 -1.14 0.15 -1.13 0.22 -1.12 0.3 -1.09 0.37 -1.08 0.44 -1.06 0.52 -1.03 0.58 -1.01 0.66 -0.98 0.72 -0.95 0.79 -0.93 0.86 -0.89 0.93 -0.85 0.99 -0.82 1.06 -0.78 1.13 -0.73 1.19 -0.7 1.25 -0.64 1.32 -0.6 1.38 -0.54 1.44 -0.5 1.5 -0.43 1.56 -3.4 -0.88 0.47 -1.7 0.54 -1.65 0.61 -1.59 0.66 -1.53 0.72 -1.47 0.77 -1.41 0.83 -1.34 0.88 -1.27 0.93 -1.21 0.98 -1.13 1.03 -1.07 1.06 -1 1.11 -0.92 1.15 -0.84 1.19 -0.77 1.22 -0.69 1.25 -0.61 1.29 -0.53 1.31 -0.44 1.33 -0.36 1.35 -0.27 1.38 -0.18 1.39 -0.09 1.4 0 1.41 0.09 1.42 0.18 1.42 0.28 1.42 0.37 1.42 0.47 1.41 0.56 1.41 0.66 1.4 0.75 0 0zm0 0c0.84,0.49 1.12,1.56 0.64,2.4 -0.49,0.84 -1.56,1.13 -2.4,0.65l1.76 -3.05zm357.2 210.29l-358.96 -207.24 1.76 -3.05 358.96 207.25 0 0 -1.76 3.04zm1.76 -3.04c0.84,0.48 1.13,1.56 0.64,2.4 -0.48,0.84 -1.56,1.13 -2.4,0.64l1.76 -3.04z"/>
</g>
<path class="fil4" d="M199.86 222.45c1.75,1 3.08,2.78 3.83,4.83 0.72,2 0.9,4.3 0.36,6.41l-3.04 -0.78c0.38,-1.48 0.25,-3.12 -0.28,-4.56 -0.5,-1.39 -1.35,-2.56 -2.43,-3.18l1.56 -2.72zm4.19 11.24l-6.67 26.05 -3.04 -0.78 6.67 -26.05 3.04 0.78zm-6.67 26.05c-0.2,0.79 -0.5,1.52 -0.87,2.16 -0.71,1.23 -1.69,2.14 -2.81,2.68 -1.17,0.55 -2.48,0.69 -3.8,0.35 -0.55,-0.14 -1.1,-0.36 -1.62,-0.67l1.57 -2.72c0.28,0.17 0.56,0.28 0.82,0.35 0.59,0.15 1.17,0.09 1.68,-0.16 0.56,-0.26 1.06,-0.74 1.44,-1.4 0.22,-0.39 0.41,-0.85 0.54,-1.37l3.05 0.78zm-9.1 4.52l-20.44 -11.8 1.56 -2.72 20.44 11.8 -1.56 2.72zm-20.45 -11.8c-1.73,-1 -3.07,-2.78 -3.81,-4.83 -0.73,-2 -0.92,-4.29 -0.38,-6.39l3.05 0.78c-0.38,1.48 -0.24,3.11 0.28,4.54 0.5,1.39 1.36,2.56 2.44,3.18l-1.58 2.72zm-4.19 -11.22l6.68 -26.05 3.04 0.78 -6.68 26.05 -3.04 -0.78zm6.67 -26.05c0.2,-0.79 0.51,-1.52 0.88,-2.17 0.71,-1.24 1.69,-2.15 2.82,-2.69 1.16,-0.55 2.47,-0.69 3.79,-0.35 0.54,0.13 1.09,0.35 1.63,0.67l-1.58 2.71c-0.27,-0.15 -0.54,-0.26 -0.82,-0.33 -0.58,-0.16 -1.17,-0.1 -1.68,0.15 -0.56,0.26 -1.06,0.74 -1.44,1.4 -0.22,0.39 -0.41,0.85 -0.55,1.39l-3.05 -0.78zm9.12 -4.54l20.44 11.8 -1.58 2.72 -20.44 -11.81 1.58 -2.71zm96.72 55.84c1.74,1 3.07,2.78 3.82,4.83 0.73,2 0.91,4.3 0.37,6.41l-3.04 -0.78c0.38,-1.48 0.24,-3.12 -0.28,-4.56 -0.51,-1.38 -1.36,-2.56 -2.45,-3.18l1.58 -2.72zm4.19 11.24l-6.68 26.05 -3.04 -0.78 6.68 -26.05 3.04 0.78zm-6.68 26.05c-0.21,0.81 -0.5,1.53 -0.87,2.16 -0.71,1.23 -1.69,2.14 -2.81,2.68 -1.17,0.55 -2.48,0.69 -3.8,0.35 -0.55,-0.14 -1.1,-0.36 -1.62,-0.67l1.57 -2.72c0.29,0.17 0.56,0.28 0.82,0.35 0.59,0.15 1.17,0.09 1.69,-0.16 0.55,-0.26 1.05,-0.74 1.43,-1.4 0.23,-0.4 0.42,-0.86 0.55,-1.37l3.04 0.78zm-9.1 4.52l-20.44 -11.8 1.56 -2.72 20.45 11.8 -1.57 2.72zm-20.44 -11.8c-1.74,-1 -3.07,-2.78 -3.82,-4.83 -0.73,-1.99 -0.91,-4.29 -0.37,-6.39l3.04 0.78c-0.38,1.47 -0.24,3.1 0.28,4.54 0.51,1.39 1.36,2.57 2.43,3.18l-1.56 2.72zm-4.19 -11.22l6.67 -26.05 3.04 0.78 -6.67 26.05 -3.04 -0.78zm6.67 -26.05c0.2,-0.8 0.5,-1.52 0.87,-2.17 0.71,-1.23 1.7,-2.15 2.82,-2.68 1.17,-0.55 2.48,-0.69 3.81,-0.36 0.54,0.15 1.09,0.36 1.61,0.67l-1.58 2.72c-0.28,-0.17 -0.55,-0.28 -0.81,-0.35 -0.58,-0.15 -1.17,-0.08 -1.68,0.16 -0.56,0.27 -1.06,0.75 -1.45,1.42 -0.22,0.38 -0.41,0.84 -0.54,1.37l-3.05 -0.78zm9.1 -4.54l20.44 11.8 -1.56 2.72 -20.44 -11.8 1.56 -2.72zm122.43 126.48c1.74,1 3.08,2.78 3.83,4.83 0.72,2 0.9,4.3 0.36,6.41l-3.04 -0.78c0.38,-1.48 0.25,-3.12 -0.28,-4.56 -0.5,-1.38 -1.36,-2.56 -2.44,-3.18l1.57 -2.72zm4.19 11.24l-6.67 26.05 -3.04 -0.78 6.67 -26.05 3.04 0.78zm-6.67 26.05c-0.21,0.81 -0.51,1.53 -0.87,2.17 -0.71,1.22 -1.69,2.14 -2.82,2.68 -1.17,0.56 -2.48,0.7 -3.81,0.36 -0.54,-0.13 -1.08,-0.36 -1.61,-0.66l1.57 -2.73c0.27,0.16 0.54,0.27 0.82,0.34 0.58,0.16 1.16,0.09 1.68,-0.15 0.56,-0.27 1.06,-0.75 1.45,-1.42 0.23,-0.4 0.42,-0.86 0.55,-1.37l3.04 0.78zm-9.11 4.55l-20.44 -11.81 1.57 -2.72 20.44 11.8 -1.57 2.73zm-20.44 -11.81c-1.74,-1 -3.07,-2.78 -3.82,-4.83 -0.73,-2 -0.91,-4.3 -0.37,-6.41l3.04 0.78c-0.38,1.47 -0.24,3.11 0.28,4.56 0.51,1.39 1.36,2.56 2.43,3.18l-1.56 2.72zm-4.19 -11.24l6.68 -26.05 3.04 0.78 -6.68 26.05 -3.04 -0.78zm6.67 -26.05c0.2,-0.79 0.5,-1.52 0.88,-2.17 0.71,-1.24 1.69,-2.15 2.81,-2.69 1.18,-0.55 2.48,-0.69 3.8,-0.36 0.55,0.15 1.1,0.37 1.62,0.67l-1.57 2.72c-0.28,-0.16 -0.56,-0.27 -0.82,-0.34 -0.59,-0.14 -1.17,-0.09 -1.68,0.16 -0.56,0.26 -1.06,0.74 -1.44,1.4 -0.22,0.39 -0.41,0.85 -0.55,1.39l-3.05 -0.78zm9.11 -4.55l20.44 11.81 -1.57 2.72 -20.44 -11.81 1.57 -2.72zm32.9 -36.8c1.74,1 3.07,2.78 3.82,4.83 0.73,2 0.91,4.3 0.36,6.41l-3.03 -0.78c0.37,-1.48 0.24,-3.12 -0.28,-4.56 -0.51,-1.38 -1.36,-2.56 -2.45,-3.18l1.58 -2.72zm4.18 11.24l-6.67 26.05 -3.04 -0.78 6.68 -26.05 3.03 0.78zm-6.66 26.05c-0.21,0.79 -0.51,1.52 -0.88,2.16 -0.71,1.23 -1.69,2.15 -2.81,2.68 -1.17,0.55 -2.48,0.69 -3.8,0.35 -0.54,-0.13 -1.09,-0.35 -1.62,-0.66l1.57 -2.72c0.27,0.15 0.55,0.27 0.82,0.33 0.59,0.16 1.17,0.1 1.69,-0.14 0.55,-0.27 1.05,-0.75 1.43,-1.41 0.23,-0.39 0.41,-0.85 0.54,-1.37l3.06 0.78zm-9.11 4.53l-20.44 -11.81 1.57 -2.72 20.44 11.81 -1.57 2.72zm-20.44 -11.81c-1.74,-1 -3.08,-2.78 -3.82,-4.82 -0.73,-2.01 -0.92,-4.3 -0.38,-6.4l3.05 0.78c-0.38,1.48 -0.24,3.11 0.28,4.55 0.5,1.38 1.36,2.55 2.44,3.17l-1.57 2.72zm-4.19 -11.22l6.67 -26.05 3.04 0.78 -6.67 26.05 -3.04 -0.78zm6.66 -26.05c0.21,-0.8 0.51,-1.53 0.88,-2.18 0.72,-1.23 1.7,-2.14 2.82,-2.68 1.17,-0.55 2.47,-0.69 3.8,-0.35 0.55,0.14 1.09,0.36 1.62,0.67l-1.58 2.72c-0.28,-0.17 -0.56,-0.28 -0.82,-0.35 -0.58,-0.15 -1.16,-0.09 -1.68,0.16 -0.56,0.26 -1.06,0.74 -1.44,1.4 -0.22,0.4 -0.41,0.86 -0.54,1.39l-3.06 -0.78zm9.11 -4.54l20.44 11.8 -1.56 2.72 -20.44 -11.8 1.56 -2.72zm84.27 104.45c1.74,1 3.08,2.78 3.83,4.83 0.72,2 0.9,4.3 0.36,6.41l-3.04 -0.78c0.38,-1.48 0.25,-3.12 -0.28,-4.56 -0.5,-1.39 -1.36,-2.56 -2.43,-3.18l1.56 -2.72zm4.19 11.24l-6.67 26.05 -3.04 -0.77 6.67 -26.06 3.04 0.78zm-6.67 26.05c-0.21,0.81 -0.51,1.54 -0.87,2.17 -0.71,1.22 -1.69,2.14 -2.82,2.68 -1.17,0.56 -2.48,0.7 -3.81,0.36 -0.55,-0.14 -1.09,-0.36 -1.61,-0.66l1.57 -2.72c0.28,0.16 0.56,0.27 0.82,0.34 0.59,0.14 1.17,0.08 1.68,-0.16 0.56,-0.27 1.06,-0.75 1.45,-1.42 0.23,-0.4 0.42,-0.86 0.55,-1.36l3.04 0.77zm-9.1 4.55l-20.45 -11.81 1.57 -2.72 20.44 11.81 -1.56 2.72zm-20.45 -11.81c-1.73,-1 -3.06,-2.77 -3.8,-4.83 -0.73,-1.99 -0.91,-4.29 -0.37,-6.4l3.04 0.78c-0.38,1.47 -0.24,3.11 0.28,4.55 0.5,1.39 1.35,2.57 2.42,3.18l-1.57 2.72zm-4.17 -11.23l6.67 -26.05 3.04 0.78 -6.67 26.05 -3.04 -0.78zm6.67 -26.05c0.21,-0.8 0.51,-1.53 0.88,-2.17 0.71,-1.24 1.69,-2.15 2.82,-2.69 1.16,-0.55 2.47,-0.69 3.79,-0.35 0.55,0.14 1.09,0.36 1.61,0.66l-1.58 2.72c-0.28,-0.16 -0.55,-0.28 -0.81,-0.34 -0.58,-0.15 -1.16,-0.09 -1.67,0.15 -0.56,0.27 -1.06,0.75 -1.44,1.42 -0.24,0.39 -0.42,0.86 -0.56,1.38l-3.04 -0.78zm9.09 -4.55l20.44 11.8 -1.56 2.72 -20.44 -11.8 1.56 -2.72zm-17.69 -10.22c1.74,1 3.07,2.78 3.82,4.83 0.72,2 0.9,4.29 0.36,6.41l-3.04 -0.78c0.38,-1.48 0.25,-3.12 -0.28,-4.56 -0.5,-1.38 -1.36,-2.56 -2.44,-3.18l1.58 -2.72zm4.18 11.24l-6.67 26.05 -3.04 -0.78 6.67 -26.05 3.04 0.78zm-6.67 26.05c-0.21,0.81 -0.51,1.53 -0.87,2.17 -0.71,1.23 -1.69,2.15 -2.82,2.68 -1.17,0.56 -2.49,0.7 -3.81,0.36 -0.54,-0.14 -1.08,-0.36 -1.61,-0.66l1.57 -2.72c0.27,0.15 0.55,0.27 0.82,0.34 0.59,0.14 1.17,0.08 1.68,-0.16 0.56,-0.27 1.06,-0.75 1.45,-1.42 0.23,-0.4 0.42,-0.86 0.55,-1.37l3.04 0.78zm-9.11 4.55l-20.44 -11.81 1.57 -2.72 20.44 11.81 -1.57 2.72zm-20.44 -11.81c-1.74,-1 -3.07,-2.78 -3.82,-4.83 -0.73,-2 -0.91,-4.3 -0.37,-6.41l3.04 0.78c-0.38,1.47 -0.24,3.11 0.29,4.56 0.5,1.39 1.35,2.56 2.43,3.18l-1.57 2.72zm-4.19 -11.24l6.68 -26.05 3.04 0.78 -6.68 26.05 -3.04 -0.78zm6.67 -26.05c0.2,-0.8 0.51,-1.53 0.88,-2.18 0.71,-1.23 1.69,-2.14 2.82,-2.68 1.16,-0.55 2.47,-0.69 3.79,-0.35 0.54,0.13 1.09,0.35 1.62,0.67l-1.57 2.71c-0.27,-0.15 -0.55,-0.26 -0.82,-0.33 -0.59,-0.16 -1.17,-0.1 -1.68,0.15 -0.55,0.26 -1.06,0.74 -1.44,1.41 -0.23,0.39 -0.41,0.85 -0.55,1.38l-3.05 -0.78zm9.11 -4.54l20.45 11.8 -1.58 2.72 -20.44 -11.81 1.57 -2.71zm32.9 -36.81c1.74,1 3.07,2.78 3.82,4.83 0.73,2 0.91,4.3 0.37,6.41l-3.04 -0.78c0.37,-1.48 0.24,-3.12 -0.28,-4.56 -0.51,-1.38 -1.36,-2.56 -2.44,-3.18l1.57 -2.72zm4.19 11.24l-6.68 26.05 -3.04 -0.77 6.68 -26.06 3.04 0.78zm-6.68 26.05c-0.21,0.81 -0.5,1.53 -0.87,2.16 -0.7,1.23 -1.68,2.15 -2.81,2.68 -1.17,0.55 -2.47,0.69 -3.8,0.35 -0.54,-0.13 -1.08,-0.35 -1.62,-0.66l1.57 -2.72c0.27,0.15 0.55,0.27 0.82,0.34 0.59,0.15 1.17,0.09 1.69,-0.16 0.55,-0.26 1.05,-0.74 1.43,-1.4 0.23,-0.4 0.42,-0.86 0.55,-1.36l3.04 0.77zm-9.1 4.53l-20.44 -11.81 1.57 -2.72 20.44 11.81 -1.57 2.72zm-20.44 -11.81c-1.74,-1 -3.07,-2.77 -3.82,-4.82 -0.73,-2 -0.92,-4.3 -0.38,-6.39l3.05 0.77c-0.38,1.48 -0.24,3.11 0.28,4.55 0.51,1.38 1.36,2.55 2.44,3.17l-1.57 2.72zm-4.19 -11.21l6.67 -26.06 3.04 0.78 -6.67 26.05 -3.04 -0.77zm6.67 -26.06c0.2,-0.79 0.5,-1.52 0.87,-2.17 0.72,-1.24 1.7,-2.15 2.82,-2.68 1.17,-0.56 2.48,-0.7 3.8,-0.36 0.55,0.14 1.09,0.37 1.62,0.67l-1.58 2.72c-0.28,-0.17 -0.56,-0.28 -0.82,-0.35 -0.59,-0.14 -1.17,-0.08 -1.68,0.16 -0.55,0.26 -1.06,0.74 -1.44,1.4 -0.22,0.39 -0.41,0.86 -0.54,1.39l-3.05 -0.78zm9.1 -4.54l20.44 11.8 -1.56 2.72 -20.44 -11.8 1.56 -2.72zm-10.07 217.4c1.73,1 3.07,2.78 3.82,4.83 0.73,2 0.91,4.29 0.37,6.39l-3.04 -0.77c0.38,-1.48 0.24,-3.11 -0.28,-4.55 -0.51,-1.39 -1.36,-2.56 -2.44,-3.18l1.57 -2.72zm4.19 11.22l-6.67 26.05 -3.04 -0.77 6.67 -26.05 3.04 0.77zm-6.67 26.05c-0.2,0.79 -0.5,1.52 -0.87,2.17 -0.71,1.23 -1.7,2.15 -2.82,2.68 -1.18,0.56 -2.49,0.7 -3.81,0.37 -0.54,-0.15 -1.09,-0.37 -1.61,-0.67l1.58 -2.72c0.27,0.16 0.54,0.27 0.81,0.34 0.59,0.14 1.17,0.08 1.68,-0.16 0.56,-0.26 1.06,-0.74 1.45,-1.41 0.22,-0.39 0.41,-0.85 0.54,-1.37l3.05 0.77zm-9.11 4.55l-135.11 -78.01 1.58 -2.72 135.11 78.01 -1.58 2.72zm-135.1 -78.01c-1.74,-1 -3.08,-2.78 -3.83,-4.83 -0.72,-2 -0.9,-4.3 -0.36,-6.41l3.04 0.78c-0.38,1.48 -0.25,3.12 0.28,4.56 0.5,1.39 1.35,2.56 2.43,3.18l-1.56 2.72zm-4.19 -11.24l6.67 -26.05 3.04 0.78 -6.67 26.05 -3.04 -0.78zm6.67 -26.05c0.2,-0.78 0.5,-1.51 0.87,-2.16 0.71,-1.23 1.69,-2.14 2.81,-2.68 1.18,-0.55 2.49,-0.69 3.8,-0.36 0.55,0.15 1.09,0.37 1.62,0.67l-1.56 2.72c-0.28,-0.16 -0.56,-0.27 -0.83,-0.34 -0.59,-0.15 -1.17,-0.09 -1.68,0.16 -0.56,0.26 -1.06,0.74 -1.44,1.4 -0.22,0.38 -0.41,0.84 -0.54,1.37l-3.05 -0.78zm9.11 -4.53l135.1 78.01 -1.57 2.72 -135.11 -78.01 1.58 -2.72zm121.65 -41.38c1.73,1 3.06,2.78 3.81,4.83 0.72,1.99 0.9,4.29 0.36,6.4l-3.04 -0.77c0.38,-1.49 0.24,-3.12 -0.28,-4.56 -0.5,-1.39 -1.35,-2.56 -2.42,-3.18l1.57 -2.72zm4.17 11.23l-6.68 26.05 -3.04 -0.77 6.68 -26.05 3.04 0.77zm-6.68 26.05c-0.2,0.81 -0.5,1.54 -0.87,2.18 -0.71,1.23 -1.69,2.15 -2.81,2.68 -1.17,0.56 -2.48,0.7 -3.8,0.36 -0.54,-0.14 -1.08,-0.36 -1.6,-0.66l1.56 -2.72c0.28,0.16 0.55,0.27 0.82,0.34 0.58,0.15 1.15,0.08 1.67,-0.16 0.56,-0.27 1.06,-0.75 1.44,-1.41 0.23,-0.39 0.42,-0.86 0.55,-1.38l3.04 0.77zm-9.08 4.56l-20.46 -11.81 1.56 -2.72 20.46 11.81 -1.56 2.72zm-20.46 -11.81c-1.74,-1.01 -3.07,-2.78 -3.81,-4.83 -0.73,-2 -0.91,-4.29 -0.36,-6.41l3.03 0.78c-0.37,1.48 -0.24,3.12 0.28,4.56 0.5,1.39 1.35,2.56 2.42,3.18l-1.56 2.72zm-4.17 -11.24l6.67 -26.05 3.04 0.78 -6.68 26.05 -3.03 -0.78zm6.66 -26.05c0.21,-0.79 0.51,-1.52 0.88,-2.17 0.71,-1.24 1.69,-2.15 2.81,-2.69 1.18,-0.55 2.48,-0.69 3.8,-0.35 0.55,0.14 1.09,0.36 1.61,0.66l-1.57 2.72c-0.28,-0.16 -0.55,-0.27 -0.81,-0.34 -0.58,-0.15 -1.16,-0.09 -1.67,0.15 -0.56,0.27 -1.06,0.76 -1.45,1.42 -0.22,0.38 -0.41,0.85 -0.54,1.38l-3.06 -0.78zm9.1 -4.55l20.45 11.81 -1.56 2.72 -20.46 -11.81 1.57 -2.72zm-17.7 -10.22c1.74,1.01 3.08,2.78 3.82,4.83 0.73,2 0.91,4.3 0.37,6.41l-3.04 -0.77c0.38,-1.49 0.24,-3.13 -0.28,-4.57 -0.51,-1.38 -1.36,-2.56 -2.44,-3.18l1.57 -2.72zm4.19 11.24l-6.68 26.05 -3.04 -0.77 6.68 -26.05 3.04 0.77zm-6.68 26.05c-0.2,0.81 -0.5,1.54 -0.87,2.18 -0.71,1.23 -1.69,2.15 -2.82,2.68 -1.16,0.55 -2.47,0.69 -3.79,0.35 -0.55,-0.14 -1.1,-0.36 -1.63,-0.66l1.58 -2.72c0.28,0.16 0.56,0.28 0.82,0.34 0.59,0.15 1.17,0.09 1.68,-0.15 0.55,-0.26 1.06,-0.75 1.44,-1.41 0.23,-0.4 0.42,-0.86 0.55,-1.38l3.04 0.77zm-9.1 4.55l-20.44 -11.8 1.56 -2.72 20.44 11.8 -1.56 2.72zm-20.45 -11.8c-1.73,-1 -3.06,-2.78 -3.8,-4.83 -0.73,-2 -0.91,-4.29 -0.37,-6.41l3.04 0.78c-0.38,1.48 -0.24,3.12 0.28,4.56 0.5,1.38 1.35,2.56 2.43,3.18l-1.58 2.72zm-4.17 -11.24l6.68 -26.05 3.04 0.78 -6.68 26.05 -3.04 -0.78zm6.68 -26.05c0.21,-0.81 0.51,-1.54 0.87,-2.18 0.72,-1.23 1.7,-2.14 2.82,-2.68 1.16,-0.55 2.47,-0.69 3.79,-0.35 0.54,0.14 1.08,0.36 1.6,0.66l-1.56 2.72c-0.27,-0.16 -0.55,-0.27 -0.81,-0.34 -0.58,-0.15 -1.16,-0.09 -1.68,0.16 -0.56,0.26 -1.05,0.74 -1.44,1.4 -0.23,0.41 -0.42,0.88 -0.55,1.39l-3.04 -0.78zm9.09 -4.55l20.44 11.8 -1.57 2.72 -20.44 -11.8 1.57 -2.72zm7.98 60.41c1.75,1 3.08,2.78 3.83,4.83 0.72,2 0.9,4.3 0.36,6.41l-3.04 -0.78c0.38,-1.48 0.25,-3.12 -0.28,-4.56 -0.5,-1.39 -1.35,-2.56 -2.43,-3.18l1.56 -2.72zm4.19 11.24l-6.67 26.05 -3.04 -0.77 6.67 -26.06 3.04 0.78zm-6.67 26.05c-0.2,0.79 -0.5,1.52 -0.87,2.17 -0.72,1.24 -1.7,2.15 -2.82,2.69 -1.17,0.55 -2.48,0.69 -3.8,0.36 -0.55,-0.15 -1.1,-0.37 -1.62,-0.67l1.58 -2.72c0.28,0.16 0.56,0.28 0.82,0.34 0.59,0.15 1.17,0.09 1.68,-0.15 0.55,-0.27 1.06,-0.75 1.44,-1.41 0.22,-0.38 0.41,-0.85 0.54,-1.38l3.05 0.77zm-9.1 4.55l-20.45 -11.8 1.57 -2.72 20.44 11.8 -1.56 2.72zm-20.45 -11.8c-1.73,-1.01 -3.06,-2.78 -3.81,-4.83 -0.72,-2 -0.9,-4.3 -0.36,-6.41l3.04 0.78c-0.38,1.48 -0.24,3.12 0.28,4.56 0.5,1.38 1.35,2.55 2.42,3.18l-1.57 2.72zm-4.17 -11.24l6.67 -26.05 3.04 0.78 -6.67 26.05 -3.04 -0.78zm6.67 -26.05c0.21,-0.8 0.51,-1.53 0.88,-2.17 0.71,-1.24 1.69,-2.15 2.81,-2.69 1.17,-0.55 2.48,-0.69 3.8,-0.35 0.55,0.14 1.09,0.36 1.61,0.66l-1.58 2.72c-0.28,-0.16 -0.55,-0.28 -0.81,-0.34 -0.58,-0.15 -1.16,-0.09 -1.67,0.16 -0.56,0.26 -1.06,0.74 -1.44,1.41 -0.23,0.39 -0.42,0.86 -0.56,1.38l-3.04 -0.78zm9.09 -4.55l20.44 11.8 -1.56 2.72 -20.44 -11.8 1.56 -2.72zm-17.69 -10.22c1.74,1 3.07,2.78 3.82,4.83 0.72,2 0.9,4.3 0.36,6.41l-3.04 -0.78c0.38,-1.48 0.25,-3.12 -0.28,-4.56 -0.5,-1.38 -1.36,-2.56 -2.44,-3.18l1.58 -2.72zm4.18 11.24l-6.67 26.05 -3.04 -0.78 6.67 -26.05 3.04 0.78zm-6.67 26.05c-0.2,0.79 -0.5,1.52 -0.88,2.17 -0.71,1.24 -1.69,2.15 -2.81,2.69 -1.17,0.55 -2.48,0.69 -3.8,0.36 -0.55,-0.15 -1.1,-0.37 -1.62,-0.67l1.57 -2.72c0.29,0.16 0.56,0.27 0.82,0.34 0.6,0.15 1.18,0.09 1.69,-0.16 0.55,-0.26 1.05,-0.74 1.43,-1.4 0.23,-0.39 0.42,-0.85 0.55,-1.39l3.05 0.78zm-9.1 4.55l-20.45 -11.81 1.57 -2.72 20.44 11.81 -1.56 2.72zm-20.45 -11.81c-1.74,-1 -3.08,-2.78 -3.82,-4.83 -0.73,-2 -0.91,-4.29 -0.37,-6.41l3.04 0.78c-0.38,1.48 -0.24,3.12 0.28,4.56 0.5,1.39 1.36,2.56 2.44,3.18l-1.57 2.72zm-4.19 -11.24l6.68 -26.05 3.04 0.78 -6.68 26.05 -3.04 -0.78zm6.68 -26.05c0.2,-0.8 0.5,-1.53 0.87,-2.17 0.71,-1.23 1.69,-2.15 2.82,-2.69 1.16,-0.55 2.47,-0.69 3.8,-0.35 0.54,0.14 1.08,0.36 1.61,0.67l-1.56 2.72c-0.28,-0.17 -0.56,-0.28 -0.83,-0.35 -0.58,-0.15 -1.17,-0.09 -1.68,0.16 -0.56,0.26 -1.06,0.74 -1.44,1.4 -0.23,0.4 -0.42,0.87 -0.55,1.39l-3.04 -0.78zm9.11 -4.54l20.44 11.8 -1.58 2.72 -20.44 -11.8 1.58 -2.72zm32.89 -36.81c1.74,1 3.07,2.78 3.82,4.83 0.73,2 0.91,4.3 0.37,6.41l-3.04 -0.77c0.38,-1.49 0.24,-3.13 -0.28,-4.57 -0.51,-1.38 -1.36,-2.56 -2.44,-3.18l1.57 -2.72zm4.19 11.24l-6.68 26.05 -3.04 -0.77 6.68 -26.05 3.04 0.77zm-6.67 26.05c-0.2,0.79 -0.51,1.52 -0.88,2.17 -0.71,1.24 -1.69,2.16 -2.82,2.69 -1.16,0.55 -2.47,0.69 -3.8,0.35 -0.54,-0.14 -1.08,-0.36 -1.61,-0.66l1.56 -2.72c0.28,0.16 0.56,0.27 0.83,0.34 0.58,0.15 1.16,0.09 1.68,-0.15 0.56,-0.27 1.06,-0.75 1.44,-1.41 0.22,-0.39 0.41,-0.85 0.55,-1.38l3.05 0.77zm-9.11 4.55l-20.44 -11.8 1.56 -2.72 20.44 11.8 -1.56 2.72zm-20.44 -11.8c-1.75,-1.01 -3.08,-2.79 -3.83,-4.84 -0.72,-2 -0.9,-4.29 -0.36,-6.41l3.04 0.78c-0.38,1.48 -0.25,3.12 0.28,4.56 0.5,1.39 1.35,2.56 2.43,3.19l-1.56 2.72zm-4.19 -11.25l6.67 -26.05 3.04 0.78 -6.67 26.05 -3.04 -0.78zm6.67 -26.05c0.2,-0.79 0.5,-1.52 0.87,-2.17 0.72,-1.23 1.7,-2.15 2.82,-2.68 1.17,-0.56 2.48,-0.7 3.8,-0.36 0.54,0.13 1.08,0.36 1.62,0.67l-1.58 2.72c-0.26,-0.16 -0.54,-0.27 -0.82,-0.34 -0.58,-0.16 -1.16,-0.1 -1.68,0.15 -0.55,0.26 -1.05,0.74 -1.44,1.4 -0.22,0.39 -0.41,0.86 -0.54,1.39l-3.05 -0.78zm9.1 -4.54l20.44 11.8 -1.56 2.72 -20.44 -11.8 1.56 -2.72zm51.98 -25.79c1.74,1 3.07,2.78 3.82,4.83 0.73,2 0.91,4.3 0.38,6.41l-3.06 -0.78c0.38,-1.49 0.25,-3.12 -0.27,-4.56 -0.51,-1.39 -1.36,-2.56 -2.44,-3.18l1.57 -2.72zm4.19 11.24l-6.68 26.05 -3.04 -0.78 6.68 -26.05 3.04 0.78zm-6.68 26.05c-0.2,0.79 -0.5,1.52 -0.86,2.15 -0.71,1.24 -1.7,2.16 -2.83,2.69 -1.17,0.56 -2.49,0.71 -3.81,0.37 -0.55,-0.15 -1.09,-0.37 -1.6,-0.67l1.57 -2.72c0.28,0.16 0.55,0.28 0.81,0.34 0.59,0.15 1.17,0.08 1.69,-0.16 0.56,-0.26 1.06,-0.75 1.45,-1.42 0.23,-0.39 0.41,-0.85 0.54,-1.36l3.04 0.78zm-9.1 4.54l-20.45 -11.8 1.58 -2.72 20.44 11.8 -1.57 2.72zm-20.44 -11.8c-1.74,-1 -3.07,-2.78 -3.82,-4.83 -0.73,-2 -0.91,-4.31 -0.37,-6.41l3.04 0.78c-0.38,1.47 -0.24,3.11 0.28,4.56 0.51,1.39 1.36,2.56 2.43,3.18l-1.56 2.72zm-4.19 -11.24l6.67 -26.05 3.04 0.78 -6.67 26.05 -3.04 -0.78zm6.67 -26.05c0.2,-0.79 0.5,-1.52 0.88,-2.17 0.71,-1.24 1.69,-2.15 2.82,-2.69 1.16,-0.55 2.47,-0.69 3.79,-0.35 0.55,0.14 1.1,0.36 1.62,0.66l-1.57 2.72c-0.28,-0.16 -0.56,-0.27 -0.82,-0.34 -0.59,-0.15 -1.17,-0.09 -1.68,0.15 -0.56,0.27 -1.06,0.75 -1.44,1.41 -0.23,0.39 -0.41,0.85 -0.55,1.39l-3.05 -0.78zm9.11 -4.55l20.44 11.81 -1.56 2.72 -20.45 -11.81 1.57 -2.72zm-17.7 -10.22c1.73,1 3.07,2.78 3.81,4.83 0.72,2 0.9,4.3 0.36,6.41l-3.04 -0.78c0.38,-1.48 0.25,-3.12 -0.27,-4.56 -0.51,-1.38 -1.36,-2.56 -2.43,-3.18l1.57 -2.72zm4.17 11.24l-6.67 26.05 -3.04 -0.78 6.67 -26.05 3.04 0.78zm-6.67 26.05c-0.21,0.8 -0.5,1.52 -0.87,2.16 -0.72,1.24 -1.7,2.16 -2.82,2.69 -1.16,0.56 -2.47,0.7 -3.8,0.36 -0.53,-0.13 -1.07,-0.35 -1.6,-0.66l1.57 -2.72c0.26,0.16 0.53,0.27 0.8,0.33 0.58,0.16 1.16,0.1 1.68,-0.15 0.56,-0.27 1.07,-0.75 1.45,-1.41 0.23,-0.4 0.42,-0.86 0.55,-1.38l3.04 0.78zm-9.09 4.55l-20.46 -11.81 1.57 -2.72 20.45 11.81 -1.56 2.72zm-20.46 -11.81c-1.73,-1 -3.06,-2.77 -3.8,-4.83 -0.73,-2 -0.91,-4.3 -0.38,-6.4l3.06 0.78c-0.38,1.48 -0.25,3.12 0.27,4.55 0.5,1.39 1.35,2.56 2.42,3.18l-1.57 2.72zm-4.17 -11.23l6.67 -26.05 3.04 0.77 -6.67 26.06 -3.04 -0.78zm6.67 -26.05c0.21,-0.81 0.51,-1.54 0.88,-2.18 0.71,-1.23 1.69,-2.15 2.81,-2.68 1.17,-0.55 2.48,-0.69 3.79,-0.36 0.55,0.14 1.09,0.36 1.61,0.66l-1.56 2.72c-0.28,-0.15 -0.55,-0.27 -0.82,-0.34 -0.58,-0.15 -1.16,-0.08 -1.68,0.16 -0.55,0.27 -1.05,0.75 -1.43,1.41 -0.23,0.4 -0.42,0.86 -0.56,1.38l-3.04 -0.77zm9.09 -4.56l20.46 11.81 -1.57 2.72 -20.45 -11.81 1.56 -2.72zm-112.29 102.6c1.75,1 3.08,2.78 3.83,4.82 0.73,2 0.91,4.29 0.37,6.39l-3.04 -0.77c0.38,-1.47 0.24,-3.11 -0.29,-4.55 -0.5,-1.38 -1.35,-2.55 -2.43,-3.17l1.56 -2.72zm4.2 11.21l-6.68 26.06 -3.04 -0.78 6.68 -26.05 3.04 0.77zm-6.67 26.06c-0.2,0.79 -0.5,1.52 -0.88,2.17 -0.71,1.24 -1.69,2.15 -2.82,2.68 -1.17,0.56 -2.47,0.7 -3.79,0.36 -0.55,-0.14 -1.1,-0.36 -1.62,-0.67l1.57 -2.72c0.28,0.17 0.56,0.28 0.82,0.35 0.59,0.14 1.17,0.08 1.68,-0.16 0.56,-0.26 1.06,-0.74 1.44,-1.4 0.22,-0.39 0.41,-0.85 0.55,-1.39l3.05 0.78zm-9.11 4.54l-39.5 -22.8 1.56 -2.72 39.51 22.8 -1.57 2.72zm-39.51 -22.8c-1.74,-1.01 -3.07,-2.79 -3.82,-4.84 -0.72,-2 -0.9,-4.29 -0.36,-6.4l3.04 0.77c-0.38,1.48 -0.25,3.12 0.28,4.56 0.5,1.39 1.35,2.56 2.44,3.19l-1.58 2.72zm-4.18 -11.24l6.67 -26.06 3.04 0.78 -6.67 26.05 -3.04 -0.77zm6.67 -26.06c0.21,-0.8 0.5,-1.53 0.87,-2.16 0.71,-1.23 1.69,-2.14 2.81,-2.67 1.17,-0.56 2.48,-0.7 3.8,-0.36 0.55,0.14 1.1,0.36 1.62,0.67l-1.57 2.72c-0.28,-0.17 -0.56,-0.28 -0.82,-0.35 -0.59,-0.15 -1.17,-0.09 -1.68,0.16 -0.56,0.26 -1.06,0.74 -1.44,1.4 -0.23,0.4 -0.42,0.86 -0.55,1.37l-3.04 -0.78zm9.1 -4.52l39.5 22.81 -1.56 2.72 -39.5 -22.81 1.56 -2.72zm51.97 -25.82c1.74,1 3.07,2.78 3.82,4.83 0.72,2 0.9,4.29 0.36,6.41l-3.04 -0.78c0.38,-1.48 0.25,-3.12 -0.28,-4.56 -0.5,-1.39 -1.36,-2.56 -2.44,-3.18l1.58 -2.72zm4.18 11.24l-6.67 26.05 -3.04 -0.78 6.67 -26.05 3.04 0.78zm-6.67 26.05c-0.2,0.79 -0.5,1.52 -0.88,2.17 -0.71,1.24 -1.69,2.15 -2.81,2.69 -1.17,0.55 -2.48,0.69 -3.8,0.36 -0.55,-0.15 -1.1,-0.37 -1.62,-0.68l1.57 -2.72c0.29,0.17 0.56,0.28 0.83,0.35 0.59,0.14 1.17,0.09 1.68,-0.16 0.55,-0.26 1.05,-0.74 1.44,-1.4 0.22,-0.39 0.41,-0.85 0.54,-1.39l3.05 0.78zm-9.1 4.54l-39.51 -22.8 1.57 -2.72 39.5 22.8 -1.56 2.72zm-39.51 -22.8c-1.74,-1.01 -3.08,-2.78 -3.82,-4.84 -0.73,-1.99 -0.91,-4.29 -0.37,-6.4l3.04 0.77c-0.38,1.48 -0.24,3.12 0.28,4.56 0.5,1.39 1.36,2.56 2.44,3.19l-1.57 2.72zm-4.19 -11.24l6.68 -26.06 3.04 0.78 -6.68 26.05 -3.04 -0.77zm6.67 -26.06c0.2,-0.79 0.5,-1.52 0.88,-2.17 0.71,-1.23 1.69,-2.15 2.82,-2.68 1.17,-0.56 2.48,-0.7 3.79,-0.36 0.55,0.14 1.1,0.37 1.62,0.67l-1.57 2.72c-0.28,-0.16 -0.56,-0.28 -0.82,-0.35 -0.59,-0.14 -1.17,-0.08 -1.68,0.16 -0.56,0.26 -1.06,0.74 -1.44,1.4 -0.22,0.39 -0.41,0.86 -0.55,1.39l-3.05 -0.78zm9.11 -4.54l39.5 22.81 -1.56 2.72 -39.5 -22.81 1.56 -2.72zm65.2 93.47c1.74,1 3.07,2.78 3.82,4.83 0.73,1.99 0.91,4.29 0.38,6.39l-3.04 -0.78c0.37,-1.47 0.23,-3.1 -0.29,-4.54 -0.51,-1.39 -1.36,-2.57 -2.43,-3.19l1.56 -2.71zm4.2 11.22l-6.68 26.05 -3.04 -0.78 6.68 -26.05 3.04 0.78zm-6.67 26.05c-0.2,0.79 -0.51,1.51 -0.88,2.16 -0.71,1.24 -1.69,2.16 -2.82,2.69 -1.17,0.55 -2.48,0.69 -3.8,0.35 -0.55,-0.13 -1.09,-0.35 -1.61,-0.66l1.56 -2.72c0.28,0.16 0.55,0.28 0.82,0.34 0.59,0.15 1.17,0.09 1.69,-0.15 0.55,-0.27 1.06,-0.75 1.44,-1.42 0.22,-0.38 0.41,-0.84 0.54,-1.37l3.06 0.78zm-9.12 4.54l-20.44 -11.8 1.58 -2.72 20.44 11.8 -1.58 2.72zm-20.44 -11.8c-1.74,-1 -3.07,-2.78 -3.82,-4.83 -0.72,-2 -0.9,-4.3 -0.36,-6.41l3.04 0.78c-0.38,1.48 -0.25,3.12 0.28,4.56 0.5,1.38 1.35,2.56 2.44,3.18l-1.58 2.72zm-4.18 -11.24l6.67 -26.05 3.04 0.77 -6.67 26.06 -3.04 -0.78zm6.67 -26.05c0.21,-0.81 0.5,-1.53 0.87,-2.16 0.71,-1.23 1.69,-2.15 2.81,-2.68 1.17,-0.55 2.48,-0.69 3.8,-0.36 0.55,0.15 1.1,0.37 1.62,0.67l-1.57 2.72c-0.28,-0.16 -0.56,-0.27 -0.82,-0.34 -0.59,-0.15 -1.17,-0.09 -1.68,0.15 -0.56,0.27 -1.06,0.75 -1.44,1.41 -0.23,0.4 -0.42,0.86 -0.55,1.36l-3.04 -0.77zm9.1 -4.53l20.44 11.81 -1.56 2.71 -20.45 -11.8 1.57 -2.72zm32.9 -36.82c1.74,1 3.08,2.78 3.82,4.83 0.73,2.01 0.91,4.3 0.38,6.41l-3.06 -0.78c0.38,-1.49 0.25,-3.12 -0.27,-4.56 -0.51,-1.39 -1.36,-2.57 -2.43,-3.18l1.56 -2.72zm4.19 11.24l-6.67 26.05 -3.04 -0.78 6.67 -26.05 3.04 0.78zm-6.67 26.05c-0.2,0.79 -0.5,1.51 -0.87,2.16 -0.72,1.24 -1.7,2.16 -2.83,2.69 -1.17,0.56 -2.48,0.7 -3.8,0.36 -0.53,-0.13 -1.07,-0.36 -1.61,-0.67l1.57 -2.71c0.26,0.15 0.54,0.26 0.82,0.33 0.58,0.15 1.17,0.09 1.68,-0.15 0.56,-0.27 1.06,-0.75 1.45,-1.42 0.22,-0.38 0.4,-0.84 0.54,-1.37l3.05 0.78zm-9.11 4.54l-20.44 -11.8 1.57 -2.72 20.44 11.81 -1.57 2.71zm-20.44 -11.8c-1.74,-1 -3.08,-2.78 -3.82,-4.83 -0.73,-2 -0.91,-4.3 -0.37,-6.41l3.04 0.78c-0.38,1.48 -0.24,3.12 0.28,4.56 0.51,1.39 1.36,2.56 2.44,3.18l-1.57 2.72zm-4.19 -11.24l6.68 -26.05 3.04 0.78 -6.68 26.05 -3.04 -0.78zm6.67 -26.05c0.2,-0.79 0.5,-1.52 0.88,-2.17 0.71,-1.24 1.69,-2.15 2.82,-2.69 1.16,-0.55 2.47,-0.69 3.79,-0.35 0.56,0.14 1.1,0.36 1.62,0.66l-1.57 2.72c-0.28,-0.16 -0.56,-0.27 -0.82,-0.34 -0.59,-0.15 -1.17,-0.09 -1.68,0.16 -0.56,0.26 -1.06,0.74 -1.44,1.4 -0.22,0.39 -0.41,0.85 -0.55,1.39l-3.05 -0.78zm9.11 -4.55l20.45 11.81 -1.58 2.72 -20.44 -11.81 1.57 -2.72zm46.12 82.46c1.74,1 3.08,2.78 3.83,4.82 0.73,2.01 0.91,4.3 0.37,6.4l-3.05 -0.78c0.38,-1.48 0.25,-3.11 -0.28,-4.55 -0.5,-1.38 -1.36,-2.55 -2.43,-3.17l1.56 -2.72zm4.2 11.22l-6.68 26.05 -3.04 -0.78 6.68 -26.05 3.04 0.78zm-6.67 26.05c-0.2,0.79 -0.51,1.52 -0.88,2.17 -0.71,1.24 -1.69,2.15 -2.82,2.69 -1.17,0.55 -2.48,0.69 -3.79,0.35 -0.56,-0.14 -1.1,-0.36 -1.63,-0.67l1.58 -2.72c0.28,0.17 0.56,0.28 0.82,0.35 0.59,0.14 1.17,0.08 1.68,-0.16 0.56,-0.26 1.06,-0.74 1.44,-1.4 0.22,-0.39 0.41,-0.85 0.55,-1.39l3.05 0.78zm-9.11 4.54l-20.44 -11.8 1.56 -2.72 20.44 11.8 -1.56 2.72zm-20.45 -11.8c-1.74,-1 -3.07,-2.78 -3.82,-4.83 -0.72,-2 -0.9,-4.3 -0.36,-6.41l3.04 0.78c-0.38,1.48 -0.25,3.12 0.28,4.56 0.5,1.38 1.36,2.56 2.44,3.18l-1.58 2.72zm-4.18 -11.24l6.67 -26.05 3.04 0.77 -6.67 26.06 -3.04 -0.78zm6.67 -26.05c0.2,-0.79 0.5,-1.51 0.87,-2.16 0.71,-1.23 1.69,-2.14 2.81,-2.68 1.17,-0.55 2.48,-0.69 3.8,-0.35 0.55,0.14 1.1,0.36 1.62,0.66l-1.57 2.72c-0.28,-0.16 -0.56,-0.27 -0.82,-0.34 -0.59,-0.15 -1.17,-0.09 -1.68,0.15 -0.56,0.27 -1.06,0.75 -1.44,1.41 -0.22,0.38 -0.41,0.84 -0.54,1.36l-3.05 -0.77zm9.1 -4.53l20.45 11.81 -1.58 2.72 -20.44 -11.81 1.57 -2.72zm32.91 -36.82c1.74,1 3.07,2.78 3.82,4.83 0.72,2 0.9,4.3 0.36,6.41l-3.04 -0.78c0.38,-1.48 0.25,-3.12 -0.28,-4.56 -0.5,-1.38 -1.36,-2.56 -2.44,-3.18l1.58 -2.72zm4.18 11.24l-6.67 26.05 -3.04 -0.78 6.67 -26.05 3.04 0.78zm-6.67 26.05c-0.2,0.79 -0.5,1.52 -0.88,2.17 -0.71,1.24 -1.69,2.15 -2.81,2.69 -1.17,0.55 -2.48,0.69 -3.8,0.36 -0.55,-0.15 -1.1,-0.37 -1.62,-0.67l1.57 -2.72c0.28,0.16 0.56,0.27 0.82,0.34 0.59,0.14 1.18,0.09 1.69,-0.16 0.55,-0.26 1.05,-0.74 1.43,-1.4 0.23,-0.39 0.41,-0.85 0.55,-1.39l3.05 0.78zm-9.11 4.55l-20.44 -11.81 1.57 -2.72 20.44 11.81 -1.57 2.72zm-20.44 -11.81c-1.74,-1 -3.08,-2.78 -3.82,-4.83 -0.73,-2 -0.91,-4.3 -0.37,-6.41l3.04 0.78c-0.38,1.48 -0.24,3.12 0.28,4.56 0.51,1.39 1.36,2.56 2.44,3.18l-1.57 2.72zm-4.19 -11.24l6.68 -26.05 3.04 0.78 -6.68 26.05 -3.04 -0.78zm6.68 -26.05c0.2,-0.8 0.5,-1.53 0.87,-2.17 0.71,-1.24 1.69,-2.15 2.82,-2.69 1.16,-0.55 2.47,-0.69 3.79,-0.35 0.55,0.14 1.1,0.36 1.62,0.67l-1.57 2.72c-0.28,-0.17 -0.56,-0.28 -0.82,-0.35 -0.59,-0.15 -1.17,-0.09 -1.68,0.16 -0.56,0.26 -1.06,0.74 -1.44,1.4 -0.23,0.4 -0.42,0.87 -0.55,1.39l-3.04 -0.78zm9.1 -4.54l20.44 11.8 -1.56 2.72 -20.44 -11.8 1.56 -2.72zm32.9 -36.81c1.74,1 3.07,2.78 3.82,4.83 0.73,2 0.91,4.3 0.36,6.41l-3.03 -0.78c0.38,-1.48 0.24,-3.12 -0.28,-4.56 -0.51,-1.38 -1.36,-2.56 -2.44,-3.18l1.57 -2.72zm4.18 11.24l-6.67 26.05 -3.04 -0.77 6.68 -26.06 3.03 0.78zm-6.66 26.05c-0.2,0.79 -0.51,1.52 -0.88,2.17 -0.71,1.24 -1.69,2.16 -2.82,2.69 -1.17,0.55 -2.48,0.69 -3.8,0.36 -0.55,-0.15 -1.09,-0.37 -1.62,-0.67l1.58 -2.72c0.28,0.16 0.56,0.27 0.82,0.34 0.59,0.15 1.17,0.09 1.68,-0.15 0.56,-0.27 1.06,-0.75 1.44,-1.41 0.22,-0.39 0.41,-0.85 0.54,-1.38l3.06 0.77zm-9.11 4.55l-20.44 -11.8 1.56 -2.73 20.44 11.81 -1.56 2.72zm-20.45 -11.8c-1.74,-1.01 -3.07,-2.79 -3.82,-4.84 -0.72,-2 -0.91,-4.29 -0.36,-6.41l3.04 0.78c-0.38,1.48 -0.25,3.12 0.27,4.56 0.51,1.39 1.36,2.56 2.45,3.18l-1.58 2.73zm-4.18 -11.25l6.67 -26.05 3.04 0.78 -6.67 26.05 -3.04 -0.78zm6.67 -26.05c0.21,-0.8 0.5,-1.53 0.87,-2.17 0.72,-1.23 1.7,-2.15 2.82,-2.68 1.17,-0.56 2.48,-0.7 3.8,-0.36 0.54,0.14 1.09,0.36 1.61,0.67l-1.56 2.72c-0.28,-0.16 -0.56,-0.28 -0.83,-0.35 -0.58,-0.15 -1.16,-0.08 -1.68,0.16 -0.55,0.26 -1.06,0.74 -1.44,1.4 -0.23,0.4 -0.42,0.87 -0.55,1.39l-3.04 -0.78zm9.1 -4.54l20.44 11.8 -1.56 2.72 -20.44 -11.8 1.56 -2.72zm-17.69 -10.22c1.73,1 3.07,2.78 3.82,4.84 0.72,2 0.91,4.29 0.37,6.4l-3.05 -0.78c0.38,-1.48 0.24,-3.12 -0.28,-4.56 -0.5,-1.38 -1.36,-2.56 -2.44,-3.18l1.58 -2.72zm4.18 11.24l-6.67 26.05 -3.04 -0.78 6.67 -26.05 3.04 0.78zm-6.66 26.05c-0.21,0.8 -0.51,1.53 -0.88,2.17 -0.71,1.23 -1.7,2.15 -2.83,2.68 -1.17,0.56 -2.48,0.7 -3.79,0.36 -0.55,-0.14 -1.1,-0.36 -1.62,-0.66l1.58 -2.72c0.28,0.16 0.55,0.27 0.81,0.34 0.59,0.14 1.17,0.08 1.68,-0.16 0.56,-0.26 1.06,-0.75 1.45,-1.41 0.22,-0.39 0.41,-0.85 0.54,-1.38l3.06 0.78zm-9.11 4.55l-20.44 -11.81 1.56 -2.71 20.44 11.8 -1.56 2.72zm-20.45 -11.81c-1.74,-1 -3.07,-2.78 -3.82,-4.83 -0.73,-2 -0.91,-4.29 -0.36,-6.41l3.03 0.78c-0.37,1.48 -0.24,3.12 0.28,4.56 0.51,1.39 1.36,2.56 2.44,3.19l-1.57 2.71zm-4.18 -11.24l6.67 -26.05 3.04 0.78 -6.68 26.05 -3.03 -0.78zm6.66 -26.05c0.21,-0.8 0.51,-1.53 0.88,-2.18 0.72,-1.23 1.7,-2.14 2.82,-2.68 1.16,-0.55 2.47,-0.69 3.8,-0.35 0.54,0.14 1.08,0.36 1.61,0.67l-1.56 2.72c-0.28,-0.16 -0.56,-0.28 -0.83,-0.35 -0.58,-0.15 -1.16,-0.09 -1.68,0.16 -0.55,0.26 -1.06,0.74 -1.44,1.4 -0.22,0.4 -0.41,0.86 -0.55,1.39l-3.05 -0.78zm9.12 -4.54l20.44 11.8 -1.58 2.72 -20.44 -11.8 1.58 -2.72zm-17.72 -10.23c1.74,1 3.08,2.78 3.82,4.83 0.73,2 0.91,4.3 0.37,6.41l-3.04 -0.78c0.38,-1.48 0.24,-3.12 -0.28,-4.56 -0.51,-1.38 -1.36,-2.56 -2.44,-3.18l1.57 -2.72zm4.19 11.24l-6.68 26.05 -3.04 -0.78 6.68 -26.05 3.04 0.78zm-6.68 26.05c-0.2,0.81 -0.5,1.54 -0.87,2.17 -0.71,1.24 -1.69,2.15 -2.82,2.69 -1.16,0.55 -2.47,0.69 -3.79,0.35 -0.55,-0.14 -1.1,-0.36 -1.63,-0.66l1.58 -2.72c0.28,0.16 0.56,0.27 0.82,0.34 0.58,0.15 1.17,0.09 1.68,-0.16 0.56,-0.26 1.06,-0.74 1.44,-1.4 0.23,-0.4 0.42,-0.86 0.55,-1.39l3.04 0.78zm-9.1 4.55l-20.44 -11.81 1.56 -2.72 20.44 11.81 -1.56 2.72zm-20.44 -11.81c-6.89,-3.97 -5.99,-6.32 -4.76,-9.54 0.22,-0.53 0.43,-1.1 0.58,-1.69l3.04 0.78c-0.19,0.76 -0.44,1.41 -0.68,2.03 -0.67,1.78 -1.17,3.08 3.38,5.7l-1.56 2.72zm-4.18 -11.23l6.68 -26.05 3.04 0.78 -6.68 26.05 -3.04 -0.78zm6.68 -26.05c0.21,-0.8 0.51,-1.54 0.87,-2.17 0.71,-1.24 1.7,-2.15 2.82,-2.69 1.16,-0.55 2.47,-0.69 3.79,-0.35 0.54,0.13 1.08,0.35 1.6,0.66l-1.56 2.72c-0.27,-0.16 -0.55,-0.28 -0.81,-0.35 -0.59,-0.14 -1.16,-0.08 -1.68,0.16 -0.56,0.27 -1.06,0.75 -1.44,1.41 -0.23,0.4 -0.42,0.86 -0.55,1.39l-3.04 -0.78zm9.08 -4.55l20.45 11.8 -1.57 2.72 -20.44 -11.8 1.56 -2.72zm51.98 -25.8c1.74,1.01 3.08,2.79 3.82,4.84 0.73,1.99 0.91,4.29 0.37,6.4l-3.04 -0.77c0.38,-1.48 0.25,-3.12 -0.28,-4.56 -0.5,-1.39 -1.36,-2.56 -2.43,-3.19l1.56 -2.72zm4.19 11.24l-6.67 26.06 -3.04 -0.78 6.67 -26.05 3.04 0.77zm-6.67 26.06c-0.21,0.8 -0.51,1.52 -0.87,2.16 -0.72,1.23 -1.7,2.15 -2.82,2.69 -1.17,0.55 -2.48,0.7 -3.81,0.35 -0.54,-0.13 -1.08,-0.35 -1.61,-0.66l1.57 -2.72c0.27,0.16 0.54,0.27 0.82,0.34 0.58,0.15 1.16,0.09 1.68,-0.16 0.56,-0.27 1.07,-0.75 1.45,-1.4 0.23,-0.4 0.41,-0.86 0.55,-1.38l3.04 0.78zm-9.11 4.54l-20.44 -11.8 1.57 -2.72 20.44 11.8 -1.57 2.72zm-20.44 -11.8c-1.74,-1.01 -3.07,-2.78 -3.82,-4.83 -0.73,-2.01 -0.91,-4.31 -0.37,-6.41l3.04 0.78c-0.38,1.47 -0.24,3.11 0.28,4.56 0.51,1.39 1.36,2.56 2.44,3.18l-1.57 2.72zm-4.19 -11.24l6.68 -26.05 3.04 0.77 -6.68 26.06 -3.04 -0.78zm6.67 -26.05c0.2,-0.79 0.5,-1.52 0.88,-2.18 0.71,-1.23 1.69,-2.15 2.82,-2.68 1.17,-0.56 2.48,-0.69 3.79,-0.36 0.55,0.15 1.1,0.37 1.62,0.67l-1.57 2.72c-0.28,-0.16 -0.56,-0.28 -0.82,-0.34 -0.59,-0.15 -1.17,-0.09 -1.68,0.15 -0.56,0.27 -1.06,0.75 -1.44,1.41 -0.23,0.39 -0.41,0.85 -0.55,1.38l-3.05 -0.77zm9.11 -4.55l20.44 11.8 -1.57 2.72 -20.44 -11.8 1.57 -2.72zm32.89 -36.8c1.75,1 3.08,2.78 3.83,4.83 0.73,2 0.91,4.29 0.36,6.41l-3.04 -0.78c0.38,-1.48 0.25,-3.12 -0.27,-4.56 -0.51,-1.39 -1.36,-2.56 -2.44,-3.18l1.56 -2.72zm4.19 11.24l-6.67 26.05 -3.04 -0.78 6.67 -26.05 3.04 0.78zm-6.66 26.05c-0.21,0.79 -0.51,1.52 -0.88,2.16 -0.71,1.23 -1.69,2.14 -2.81,2.68 -1.17,0.55 -2.48,0.69 -3.8,0.35 -0.54,-0.13 -1.09,-0.36 -1.62,-0.67l1.57 -2.72c0.27,0.16 0.55,0.27 0.82,0.34 0.59,0.16 1.17,0.1 1.69,-0.15 0.55,-0.26 1.05,-0.74 1.43,-1.4 0.23,-0.39 0.41,-0.85 0.54,-1.37l3.06 0.78zm-9.11 4.52l-20.45 -11.8 1.58 -2.72 20.44 11.8 -1.57 2.72zm-20.44 -11.8c-1.74,-1 -3.08,-2.78 -3.82,-4.83 -0.73,-2 -0.92,-4.29 -0.38,-6.39l3.05 0.78c-0.38,1.48 -0.24,3.11 0.28,4.54 0.5,1.39 1.36,2.56 2.43,3.18l-1.56 2.72zm-4.19 -11.22l6.67 -26.05 3.04 0.78 -6.68 26.05 -3.03 -0.78zm6.66 -26.05c0.21,-0.8 0.51,-1.53 0.88,-2.18 0.72,-1.23 1.7,-2.14 2.82,-2.68 1.16,-0.55 2.47,-0.69 3.8,-0.35 0.54,0.14 1.08,0.36 1.61,0.66l-1.56 2.72c-0.28,-0.16 -0.56,-0.27 -0.83,-0.34 -0.58,-0.15 -1.16,-0.09 -1.68,0.16 -0.55,0.26 -1.06,0.74 -1.44,1.4 -0.22,0.4 -0.41,0.86 -0.54,1.39l-3.06 -0.78zm9.12 -4.55l20.44 11.81 -1.58 2.72 -20.44 -11.81 1.58 -2.72zm96.74 55.86c1.73,1 3.06,2.77 3.8,4.82 0.73,2 0.91,4.3 0.37,6.41l-3.04 -0.78c0.38,-1.48 0.24,-3.12 -0.28,-4.56 -0.5,-1.38 -1.35,-2.55 -2.43,-3.17l1.58 -2.72zm4.17 11.23l-6.68 26.05 -3.04 -0.78 6.68 -26.05 3.04 0.78zm-6.68 26.05c-0.21,0.8 -0.5,1.53 -0.87,2.16 -0.71,1.23 -1.69,2.15 -2.81,2.68 -1.17,0.56 -2.48,0.7 -3.79,0.36 -0.54,-0.14 -1.08,-0.36 -1.61,-0.67l1.56 -2.72c0.28,0.16 0.55,0.28 0.82,0.34 0.59,0.15 1.17,0.09 1.68,-0.15 0.55,-0.27 1.05,-0.75 1.43,-1.4 0.23,-0.41 0.42,-0.87 0.55,-1.38l3.04 0.78zm-9.08 4.53l-20.46 -11.81 1.57 -2.72 20.45 11.81 -1.56 2.72zm-20.46 -11.81c-1.73,-1 -3.06,-2.77 -3.81,-4.82 -0.72,-1.99 -0.9,-4.29 -0.37,-6.39l3.04 0.78c-0.37,1.47 -0.24,3.1 0.28,4.54 0.51,1.39 1.36,2.56 2.43,3.17l-1.57 2.72zm-4.18 -11.21l6.68 -26.05 3.04 0.78 -6.68 26.05 -3.04 -0.78zm6.68 -26.05c0.2,-0.8 0.5,-1.53 0.87,-2.17 0.71,-1.24 1.69,-2.16 2.82,-2.69 1.16,-0.55 2.47,-0.69 3.79,-0.35 0.54,0.13 1.08,0.35 1.6,0.66l-1.56 2.72c-0.27,-0.16 -0.55,-0.28 -0.82,-0.34 -0.58,-0.15 -1.16,-0.09 -1.67,0.15 -0.56,0.27 -1.06,0.75 -1.44,1.41 -0.23,0.4 -0.42,0.86 -0.55,1.39l-3.04 -0.78zm9.08 -4.55l20.46 11.81 -1.56 2.72 -20.46 -11.81 1.56 -2.72zm58.61 33.83c1.73,1 3.07,2.78 3.82,4.83 0.72,2.01 0.91,4.3 0.37,6.41l-3.05 -0.78c0.38,-1.48 0.24,-3.12 -0.28,-4.56 -0.5,-1.38 -1.36,-2.56 -2.44,-3.18l1.58 -2.72zm4.18 11.24l-6.67 26.05 -3.04 -0.78 6.67 -26.05 3.04 0.78zm-6.67 26.05c-0.2,0.79 -0.49,1.51 -0.86,2.15 -0.72,1.24 -1.7,2.15 -2.83,2.68 -1.17,0.56 -2.48,0.69 -3.8,0.36 -0.54,-0.14 -1.08,-0.36 -1.61,-0.67l1.57 -2.72c0.27,0.16 0.55,0.28 0.81,0.35 0.59,0.15 1.17,0.08 1.69,-0.16 0.56,-0.26 1.06,-0.74 1.45,-1.41 0.22,-0.39 0.4,-0.84 0.53,-1.36l3.05 0.78zm-9.1 4.52l-20.45 -11.8 1.58 -2.72 20.44 11.8 -1.57 2.72zm-20.44 -11.8c-1.74,-1 -3.08,-2.78 -3.83,-4.82 -0.72,-2 -0.9,-4.29 -0.36,-6.4l3.04 0.78c-0.38,1.47 -0.25,3.11 0.28,4.54 0.5,1.39 1.36,2.56 2.43,3.18l-1.56 2.72zm-4.19 -11.22l6.67 -26.05 3.04 0.78 -6.67 26.05 -3.04 -0.78zm6.66 -26.05c0.21,-0.8 0.51,-1.53 0.88,-2.18 0.72,-1.23 1.7,-2.14 2.82,-2.68 1.16,-0.55 2.47,-0.69 3.8,-0.35 0.54,0.14 1.08,0.36 1.61,0.67l-1.56 2.72c-0.28,-0.17 -0.56,-0.28 -0.83,-0.35 -0.58,-0.15 -1.16,-0.09 -1.68,0.16 -0.56,0.26 -1.06,0.74 -1.44,1.4 -0.22,0.4 -0.41,0.86 -0.55,1.39l-3.05 -0.78zm9.12 -4.54l20.44 11.8 -1.58 2.72 -20.44 -11.8 1.58 -2.72zm134.85 77.86c1.75,1.01 3.09,2.78 3.83,4.83 0.73,2 0.91,4.3 0.36,6.41l-3.03 -0.78c0.37,-1.48 0.24,-3.12 -0.28,-4.56 -0.51,-1.39 -1.36,-2.56 -2.44,-3.18l1.56 -2.72zm4.19 11.24l-6.67 26.05 -3.04 -0.77 6.68 -26.06 3.03 0.78zm-6.66 26.05c-0.2,0.79 -0.5,1.51 -0.88,2.16 -0.71,1.23 -1.69,2.15 -2.81,2.68 -1.17,0.55 -2.48,0.69 -3.8,0.35 -0.54,-0.13 -1.09,-0.35 -1.62,-0.66l1.57 -2.72c0.27,0.15 0.55,0.27 0.83,0.34 0.58,0.15 1.16,0.09 1.68,-0.15 0.55,-0.27 1.06,-0.75 1.43,-1.4 0.23,-0.39 0.41,-0.85 0.54,-1.37l3.06 0.77zm-9.11 4.53l-20.44 -11.81 1.57 -2.71 20.44 11.8 -1.57 2.72zm-20.44 -11.81c-1.73,-1 -3.06,-2.77 -3.81,-4.82 -0.72,-1.99 -0.9,-4.28 -0.37,-6.39l3.04 0.78c-0.37,1.47 -0.24,3.1 0.29,4.54 0.5,1.39 1.35,2.56 2.42,3.18l-1.57 2.71zm-4.18 -11.21l6.68 -26.05 3.04 0.78 -6.68 26.05 -3.04 -0.78zm6.68 -26.05c0.21,-0.81 0.51,-1.54 0.87,-2.18 0.71,-1.23 1.69,-2.14 2.82,-2.68 1.16,-0.55 2.47,-0.69 3.79,-0.35 0.55,0.14 1.09,0.36 1.61,0.66l-1.58 2.72c-0.27,-0.16 -0.55,-0.28 -0.8,-0.34 -0.58,-0.15 -1.16,-0.09 -1.68,0.16 -0.55,0.26 -1.05,0.74 -1.44,1.41 -0.23,0.4 -0.42,0.87 -0.55,1.38l-3.04 -0.78zm9.08 -4.55l20.44 11.8 -1.56 2.72 -20.44 -11.8 1.56 -2.72zm58.61 33.83c1.73,1 3.06,2.78 3.8,4.83 0.73,1.99 0.91,4.29 0.37,6.4l-3.04 -0.77c0.38,-1.49 0.24,-3.12 -0.28,-4.56 -0.5,-1.39 -1.35,-2.56 -2.43,-3.18l1.58 -2.72zm4.17 11.23l-6.68 26.05 -3.04 -0.77 6.68 -26.05 3.04 0.77zm-6.68 26.05c-0.21,0.81 -0.5,1.54 -0.87,2.17 -0.7,1.22 -1.68,2.14 -2.81,2.67 -1.17,0.56 -2.48,0.7 -3.79,0.36 -0.55,-0.14 -1.09,-0.36 -1.61,-0.66l1.57 -2.72c0.28,0.16 0.55,0.27 0.81,0.34 0.59,0.14 1.17,0.08 1.68,-0.16 0.55,-0.26 1.05,-0.74 1.43,-1.41 0.23,-0.4 0.42,-0.86 0.55,-1.36l3.04 0.77zm-9.08 4.54l-20.45 -11.81 1.58 -2.72 20.44 11.81 -1.57 2.72zm-20.44 -11.81c-1.74,-1 -3.08,-2.78 -3.83,-4.82 -0.73,-2 -0.91,-4.3 -0.37,-6.4l3.05 0.78c-0.38,1.48 -0.24,3.11 0.28,4.55 0.5,1.38 1.36,2.55 2.43,3.17l-1.56 2.72zm-4.2 -11.22l6.68 -26.05 3.04 0.78 -6.68 26.05 -3.04 -0.78zm6.67 -26.05c0.2,-0.79 0.51,-1.52 0.88,-2.17 0.71,-1.23 1.69,-2.15 2.82,-2.68 1.16,-0.56 2.47,-0.69 3.79,-0.36 0.54,0.13 1.09,0.36 1.63,0.67l-1.58 2.72c-0.27,-0.16 -0.54,-0.27 -0.82,-0.34 -0.58,-0.16 -1.16,-0.09 -1.68,0.15 -0.56,0.26 -1.06,0.74 -1.44,1.4 -0.22,0.39 -0.41,0.85 -0.55,1.39l-3.05 -0.78zm9.12 -4.54l20.44 11.8 -1.58 2.72 -20.44 -11.8 1.58 -2.72zm7.98 60.41c1.73,1 3.07,2.78 3.81,4.83 0.72,1.99 0.9,4.29 0.36,6.4l-3.04 -0.77c0.38,-1.49 0.25,-3.12 -0.27,-4.56 -0.51,-1.39 -1.36,-2.56 -2.43,-3.18l1.57 -2.72zm4.17 11.23l-6.67 26.05 -3.04 -0.77 6.67 -26.05 3.04 0.77zm-6.67 26.05c-0.21,0.81 -0.51,1.54 -0.87,2.17 -0.72,1.23 -1.7,2.15 -2.82,2.68 -1.16,0.56 -2.47,0.7 -3.8,0.36 -0.53,-0.12 -1.06,-0.35 -1.6,-0.65l1.56 -2.72c0.26,0.15 0.54,0.26 0.81,0.33 0.58,0.15 1.16,0.09 1.68,-0.16 0.56,-0.27 1.07,-0.75 1.45,-1.41 0.23,-0.41 0.42,-0.87 0.55,-1.37l3.04 0.77zm-9.09 4.56l-20.45 -11.81 1.58 -2.72 20.44 11.81 -1.57 2.72zm-20.44 -11.81c-1.74,-1 -3.08,-2.78 -3.82,-4.83 -0.73,-2 -0.91,-4.3 -0.37,-6.41l3.04 0.78c-0.38,1.48 -0.24,3.11 0.28,4.56 0.51,1.39 1.36,2.56 2.43,3.18l-1.56 2.72zm-4.19 -11.24l6.67 -26.05 3.04 0.78 -6.67 26.05 -3.04 -0.78zm6.67 -26.05c0.21,-0.8 0.51,-1.53 0.88,-2.17 0.71,-1.23 1.69,-2.15 2.81,-2.69 1.17,-0.55 2.48,-0.69 3.8,-0.35 0.55,0.14 1.09,0.36 1.62,0.67l-1.57 2.72c-0.28,-0.17 -0.55,-0.28 -0.82,-0.35 -0.59,-0.15 -1.17,-0.09 -1.69,0.16 -0.55,0.26 -1.05,0.74 -1.43,1.4 -0.23,0.4 -0.42,0.87 -0.56,1.39l-3.04 -0.78zm9.11 -4.54l20.44 11.8 -1.57 2.72 -20.44 -11.8 1.57 -2.72zm-36 146.63c1.73,1 3.07,2.78 3.82,4.83 0.73,2 0.91,4.29 0.37,6.39l-3.05 -0.78c0.38,-1.48 0.25,-3.11 -0.28,-4.54 -0.5,-1.38 -1.36,-2.56 -2.44,-3.18l1.58 -2.72zm4.19 11.22l-6.68 26.05 -3.04 -0.77 6.68 -26.06 3.04 0.78zm-6.67 26.05c-0.2,0.79 -0.5,1.52 -0.88,2.17 -0.71,1.24 -1.69,2.16 -2.82,2.69 -1.17,0.55 -2.48,0.69 -3.79,0.36 -0.55,-0.15 -1.1,-0.37 -1.62,-0.67l1.57 -2.72c0.28,0.16 0.56,0.28 0.82,0.34 0.59,0.15 1.17,0.09 1.68,-0.16 0.56,-0.26 1.06,-0.74 1.44,-1.4 0.22,-0.39 0.41,-0.85 0.55,-1.38l3.05 0.77zm-9.11 4.55l-20.44 -11.8 1.56 -2.72 20.44 11.8 -1.56 2.72zm-20.44 -11.8c-1.74,-1.01 -3.08,-2.79 -3.83,-4.84 -0.72,-1.99 -0.9,-4.29 -0.36,-6.41l3.04 0.78c-0.38,1.48 -0.25,3.12 0.28,4.56 0.5,1.39 1.36,2.56 2.43,3.19l-1.56 2.72zm-4.19 -11.25l6.67 -26.05 3.04 0.78 -6.67 26.05 -3.04 -0.78zm6.67 -26.05c0.21,-0.8 0.51,-1.53 0.87,-2.16 0.71,-1.23 1.69,-2.14 2.82,-2.67 1.16,-0.56 2.47,-0.7 3.8,-0.36 0.55,0.14 1.09,0.37 1.62,0.67l-1.58 2.72c-0.28,-0.17 -0.56,-0.28 -0.82,-0.35 -0.58,-0.15 -1.17,-0.09 -1.68,0.16 -0.56,0.26 -1.06,0.74 -1.44,1.4 -0.23,0.4 -0.42,0.86 -0.55,1.37l-3.04 -0.78zm9.1 -4.52l20.44 11.8 -1.56 2.72 -20.44 -11.8 1.56 -2.72zm32.9 -36.83c1.74,1.01 3.08,2.78 3.83,4.83 0.72,2 0.9,4.3 0.36,6.41l-3.04 -0.77c0.38,-1.49 0.25,-3.13 -0.28,-4.57 -0.5,-1.39 -1.35,-2.56 -2.43,-3.18l1.56 -2.72zm4.19 11.24l-6.67 26.05 -3.04 -0.77 6.67 -26.05 3.04 0.77zm-6.67 26.05c-0.2,0.8 -0.5,1.53 -0.88,2.18 -0.71,1.23 -1.69,2.15 -2.81,2.68 -1.17,0.55 -2.48,0.7 -3.8,0.36 -0.54,-0.15 -1.08,-0.37 -1.61,-0.67l1.56 -2.72c0.28,0.16 0.56,0.28 0.82,0.34 0.6,0.15 1.18,0.09 1.69,-0.15 0.55,-0.27 1.05,-0.75 1.43,-1.41 0.23,-0.39 0.42,-0.86 0.55,-1.38l3.05 0.77zm-9.1 4.55l-20.45 -11.8 1.57 -2.72 20.44 11.8 -1.56 2.72zm-20.45 -11.8c-1.74,-1.01 -3.08,-2.79 -3.82,-4.84 -0.73,-1.99 -0.91,-4.29 -0.37,-6.4l3.04 0.77c-0.38,1.48 -0.24,3.12 0.28,4.56 0.51,1.39 1.36,2.56 2.44,3.19l-1.57 2.72zm-4.19 -11.24l6.68 -26.06 3.04 0.78 -6.68 26.05 -3.04 -0.77zm6.67 -26.06c0.2,-0.79 0.5,-1.52 0.88,-2.17 0.71,-1.23 1.69,-2.15 2.82,-2.68 1.17,-0.56 2.48,-0.7 3.79,-0.36 0.56,0.14 1.1,0.37 1.63,0.67l-1.58 2.72c-0.28,-0.17 -0.56,-0.28 -0.82,-0.35 -0.59,-0.14 -1.17,-0.08 -1.68,0.16 -0.56,0.26 -1.06,0.74 -1.44,1.4 -0.22,0.39 -0.41,0.86 -0.55,1.39l-3.05 -0.78zm9.11 -4.54l20.44 11.8 -1.56 2.72 -20.44 -11.8 1.56 -2.72zm65.21 93.46c1.73,1.01 3.07,2.78 3.82,4.83 0.73,2 0.91,4.3 0.37,6.39l-3.05 -0.77c0.38,-1.48 0.24,-3.11 -0.28,-4.55 -0.5,-1.38 -1.36,-2.55 -2.44,-3.18l1.58 -2.72zm4.19 11.22l-6.68 26.06 -3.04 -0.78 6.68 -26.05 3.04 0.77zm-6.67 26.06c-0.21,0.8 -0.51,1.53 -0.88,2.18 -0.71,1.23 -1.69,2.14 -2.82,2.67 -1.16,0.56 -2.47,0.7 -3.79,0.36 -0.55,-0.14 -1.1,-0.37 -1.63,-0.67l1.58 -2.72c0.28,0.17 0.56,0.28 0.82,0.35 0.59,0.15 1.17,0.08 1.68,-0.16 0.55,-0.26 1.05,-0.74 1.44,-1.41 0.22,-0.39 0.41,-0.85 0.55,-1.38l3.05 0.78zm-9.11 4.54l-39.52 -22.81 1.56 -2.72 39.52 22.81 -1.56 2.72zm-39.53 -22.81c-1.74,-1.01 -3.07,-2.79 -3.82,-4.84 -0.72,-2 -0.9,-4.29 -0.36,-6.4l3.04 0.77c-0.38,1.48 -0.25,3.12 0.28,4.56 0.5,1.39 1.36,2.56 2.44,3.19l-1.58 2.72zm-4.18 -11.24l6.67 -26.06 3.04 0.78 -6.67 26.05 -3.04 -0.77zm6.67 -26.06c0.21,-0.8 0.51,-1.53 0.87,-2.16 0.71,-1.23 1.69,-2.14 2.82,-2.68 1.16,-0.55 2.47,-0.69 3.8,-0.35 0.55,0.14 1.09,0.37 1.62,0.67l-1.58 2.72c-0.28,-0.17 -0.56,-0.28 -0.82,-0.35 -0.59,-0.15 -1.17,-0.09 -1.68,0.16 -0.56,0.26 -1.06,0.74 -1.44,1.4 -0.23,0.4 -0.42,0.86 -0.55,1.37l-3.04 -0.78zm9.1 -4.52l39.52 22.81 -1.56 2.72 -39.52 -22.81 1.56 -2.72zm51.99 -25.81c1.74,1 3.07,2.78 3.82,4.83 0.72,2 0.9,4.29 0.36,6.41l-3.04 -0.78c0.38,-1.48 0.25,-3.12 -0.28,-4.56 -0.5,-1.39 -1.36,-2.56 -2.44,-3.18l1.58 -2.72zm4.18 11.24l-6.67 26.05 -3.04 -0.78 6.67 -26.05 3.04 0.78zm-6.67 26.05c-0.2,0.79 -0.5,1.52 -0.88,2.17 -0.71,1.24 -1.69,2.15 -2.81,2.69 -1.17,0.55 -2.48,0.69 -3.8,0.36 -0.55,-0.15 -1.1,-0.37 -1.62,-0.68l1.57 -2.72c0.29,0.17 0.56,0.28 0.82,0.35 0.59,0.14 1.18,0.09 1.69,-0.16 0.55,-0.26 1.05,-0.74 1.43,-1.4 0.23,-0.39 0.41,-0.85 0.55,-1.39l3.05 0.78zm-9.11 4.54l-39.52 -22.81 1.57 -2.72 39.52 22.81 -1.57 2.72zm-39.52 -22.81c-1.74,-1.01 -3.08,-2.78 -3.82,-4.84 -0.73,-1.99 -0.91,-4.29 -0.37,-6.4l3.04 0.77c-0.38,1.49 -0.24,3.12 0.28,4.56 0.51,1.39 1.36,2.56 2.44,3.19l-1.57 2.72zm-4.19 -11.24l6.68 -26.05 3.04 0.77 -6.68 26.05 -3.04 -0.77zm6.67 -26.05c0.2,-0.8 0.51,-1.53 0.88,-2.18 0.71,-1.23 1.69,-2.15 2.82,-2.68 1.16,-0.56 2.47,-0.69 3.8,-0.36 0.54,0.14 1.08,0.37 1.61,0.67l-1.56 2.72c-0.28,-0.16 -0.56,-0.28 -0.83,-0.35 -0.58,-0.15 -1.16,-0.09 -1.68,0.16 -0.56,0.26 -1.06,0.74 -1.44,1.4 -0.22,0.39 -0.41,0.86 -0.55,1.39l-3.05 -0.77zm9.12 -4.55l39.52 22.82 -1.58 2.72 -39.52 -22.82 1.58 -2.72zm32.88 -36.81c1.75,1.01 3.09,2.79 3.83,4.84 0.73,1.99 0.91,4.29 0.37,6.4l-3.04 -0.77c0.38,-1.49 0.24,-3.12 -0.28,-4.56 -0.51,-1.39 -1.36,-2.57 -2.44,-3.19l1.56 -2.72zm4.2 11.24l-6.68 26.05 -3.04 -0.77 6.68 -26.05 3.04 0.77zm-6.67 26.05c-0.2,0.8 -0.51,1.52 -0.88,2.18 -0.71,1.23 -1.69,2.15 -2.82,2.68 -1.16,0.56 -2.47,0.69 -3.79,0.35 -0.54,-0.12 -1.08,-0.35 -1.62,-0.66l1.56 -2.72c0.27,0.15 0.55,0.27 0.83,0.34 0.58,0.15 1.17,0.09 1.68,-0.15 0.56,-0.27 1.06,-0.74 1.44,-1.41 0.22,-0.38 0.41,-0.85 0.55,-1.38l3.05 0.77zm-9.12 4.55l-20.44 -11.8 1.58 -2.72 20.44 11.8 -1.58 2.72zm-20.44 -11.8c-1.74,-1.01 -3.07,-2.78 -3.82,-4.84 -0.72,-1.99 -0.9,-4.29 -0.36,-6.4l3.04 0.77c-0.38,1.49 -0.25,3.13 0.28,4.57 0.5,1.38 1.36,2.55 2.44,3.18l-1.58 2.72zm-4.18 -11.24l6.67 -26.05 3.04 0.77 -6.67 26.05 -3.04 -0.77zm6.67 -26.05c0.2,-0.8 0.5,-1.53 0.87,-2.18 0.72,-1.23 1.7,-2.15 2.82,-2.68 1.17,-0.56 2.48,-0.7 3.8,-0.36 0.55,0.15 1.1,0.37 1.62,0.67l-1.58 2.72c-0.28,-0.16 -0.55,-0.28 -0.81,-0.35 -0.6,-0.14 -1.18,-0.08 -1.69,0.16 -0.55,0.27 -1.05,0.75 -1.44,1.41 -0.22,0.38 -0.41,0.85 -0.54,1.38l-3.05 -0.77zm9.11 -4.55l20.44 11.8 -1.57 2.72 -20.45 -11.8 1.58 -2.72zm51.97 -25.79c1.74,1 3.08,2.78 3.83,4.83 0.72,2 0.9,4.3 0.36,6.41l-3.04 -0.78c0.38,-1.48 0.24,-3.12 -0.28,-4.56 -0.5,-1.38 -1.36,-2.56 -2.44,-3.18l1.57 -2.72zm4.19 11.24l-6.68 26.05 -3.04 -0.77 6.68 -26.06 3.04 0.78zm-6.68 26.05c-0.2,0.81 -0.5,1.54 -0.87,2.17 -0.7,1.23 -1.68,2.15 -2.81,2.68 -1.18,0.56 -2.49,0.7 -3.81,0.37 -0.54,-0.15 -1.08,-0.37 -1.61,-0.67l1.56 -2.72c0.28,0.15 0.56,0.27 0.83,0.34 0.58,0.14 1.17,0.08 1.68,-0.16 0.56,-0.27 1.06,-0.75 1.45,-1.42 0.23,-0.4 0.41,-0.86 0.54,-1.36l3.04 0.77zm-9.1 4.55l-20.44 -11.81 1.56 -2.71 20.44 11.8 -1.56 2.72zm-20.44 -11.81c-1.74,-1 -3.07,-2.78 -3.82,-4.83 -0.73,-2 -0.91,-4.3 -0.37,-6.41l3.04 0.78c-0.38,1.47 -0.24,3.12 0.28,4.56 0.51,1.39 1.36,2.57 2.43,3.19l-1.56 2.71zm-4.19 -11.24l6.68 -26.05 3.03 0.78 -6.67 26.05 -3.04 -0.78zm6.67 -26.05c0.2,-0.8 0.5,-1.53 0.88,-2.18 0.71,-1.22 1.69,-2.14 2.81,-2.68 1.17,-0.55 2.48,-0.69 3.8,-0.35 0.54,0.13 1.08,0.35 1.62,0.67l-1.57 2.72c-0.27,-0.16 -0.55,-0.27 -0.82,-0.34 -0.59,-0.16 -1.17,-0.1 -1.68,0.15 -0.56,0.26 -1.06,0.74 -1.44,1.41 -0.23,0.39 -0.41,0.85 -0.55,1.38l-3.05 -0.78zm9.11 -4.54l20.44 11.8 -1.57 2.72 -20.44 -11.8 1.57 -2.72zm32.9 -36.81c1.74,1.01 3.07,2.78 3.82,4.83 0.73,2 0.9,4.3 0.36,6.41l-3.04 -0.77c0.38,-1.49 0.25,-3.12 -0.27,-4.57 -0.51,-1.38 -1.36,-2.56 -2.45,-3.18l1.58 -2.72zm4.18 11.24l-6.67 26.05 -3.04 -0.77 6.67 -26.05 3.04 0.77zm-6.67 26.05c-0.21,0.81 -0.5,1.53 -0.87,2.17 -0.71,1.22 -1.69,2.14 -2.81,2.67 -1.17,0.55 -2.48,0.69 -3.8,0.35 -0.55,-0.14 -1.1,-0.36 -1.62,-0.66l1.57 -2.72c0.28,0.16 0.56,0.28 0.82,0.34 0.59,0.15 1.17,0.09 1.69,-0.15 0.55,-0.27 1.05,-0.74 1.43,-1.4 0.23,-0.41 0.42,-0.87 0.55,-1.37l3.04 0.77zm-9.1 4.53l-20.44 -11.8 1.56 -2.72 20.45 11.8 -1.57 2.72zm-20.45 -11.8c-1.73,-1.01 -3.07,-2.78 -3.82,-4.83 -0.72,-2 -0.91,-4.3 -0.37,-6.39l3.05 0.77c-0.38,1.48 -0.24,3.11 0.28,4.55 0.5,1.38 1.36,2.55 2.44,3.18l-1.58 2.72zm-4.19 -11.22l6.68 -26.06 3.04 0.78 -6.67 26.05 -3.05 -0.77zm6.68 -26.06c0.21,-0.8 0.5,-1.53 0.87,-2.17 0.71,-1.23 1.69,-2.15 2.82,-2.68 1.17,-0.56 2.47,-0.7 3.8,-0.36 0.55,0.14 1.09,0.37 1.62,0.67l-1.58 2.72c-0.28,-0.16 -0.56,-0.28 -0.82,-0.35 -0.58,-0.15 -1.16,-0.09 -1.68,0.16 -0.55,0.26 -1.05,0.74 -1.44,1.41 -0.23,0.4 -0.42,0.86 -0.55,1.38l-3.04 -0.78zm9.1 -4.54l20.44 11.8 -1.56 2.72 -20.44 -11.8 1.56 -2.72zm-335.31 -137.8c1.74,1.01 3.08,2.79 3.82,4.84 0.73,1.99 0.91,4.29 0.37,6.41l-3.04 -0.78c0.38,-1.48 0.24,-3.12 -0.28,-4.56 -0.5,-1.39 -1.36,-2.56 -2.44,-3.19l1.57 -2.72zm4.19 11.25l-6.68 26.05 -3.04 -0.78 6.68 -26.05 3.04 0.78zm-6.68 26.05c-0.2,0.8 -0.5,1.53 -0.87,2.16 -0.7,1.23 -1.68,2.15 -2.81,2.68 -1.17,0.56 -2.48,0.7 -3.81,0.36 -0.54,-0.13 -1.08,-0.35 -1.61,-0.66l1.57 -2.72c0.27,0.16 0.54,0.27 0.82,0.34 0.58,0.15 1.16,0.09 1.68,-0.16 0.56,-0.26 1.06,-0.75 1.44,-1.41 0.24,-0.4 0.43,-0.86 0.55,-1.37l3.04 0.78zm-9.1 4.54l-20.45 -11.8 1.58 -2.72 20.44 11.8 -1.57 2.72zm-20.44 -11.8c-1.74,-1.01 -3.08,-2.78 -3.82,-4.84 -0.73,-2 -0.91,-4.3 -0.37,-6.4l3.04 0.77c-0.38,1.48 -0.24,3.12 0.28,4.56 0.51,1.4 1.36,2.57 2.43,3.19l-1.56 2.72zm-4.19 -11.24l6.68 -26.05 3.04 0.77 -6.68 26.05 -3.04 -0.77zm6.67 -26.05c0.2,-0.79 0.5,-1.52 0.88,-2.17 0.71,-1.24 1.69,-2.16 2.81,-2.69 1.17,-0.55 2.48,-0.7 3.8,-0.36 0.55,0.15 1.1,0.37 1.62,0.67l-1.57 2.72c-0.29,-0.16 -0.56,-0.28 -0.82,-0.34 -0.59,-0.15 -1.17,-0.09 -1.68,0.15 -0.56,0.27 -1.06,0.75 -1.44,1.41 -0.23,0.38 -0.41,0.85 -0.55,1.38l-3.05 -0.77zm9.11 -4.55l20.44 11.8 -1.56 2.72 -20.45 -11.8 1.57 -2.72zm96.73 55.85c1.74,1 3.07,2.78 3.82,4.83 0.72,2 0.9,4.29 0.36,6.41l-3.04 -0.78c0.38,-1.48 0.25,-3.12 -0.28,-4.56 -0.5,-1.39 -1.36,-2.56 -2.44,-3.19l1.58 -2.71zm4.18 11.24l-6.67 26.05 -3.04 -0.78 6.67 -26.05 3.04 0.78zm-6.67 26.05c-0.21,0.8 -0.51,1.53 -0.87,2.17 -0.72,1.23 -1.7,2.15 -2.82,2.68 -1.17,0.55 -2.48,0.69 -3.81,0.36 -0.55,-0.15 -1.09,-0.37 -1.61,-0.67l1.57 -2.72c0.28,0.17 0.56,0.28 0.82,0.35 0.58,0.14 1.16,0.08 1.68,-0.16 0.56,-0.27 1.07,-0.76 1.45,-1.41 0.23,-0.41 0.42,-0.87 0.55,-1.38l3.04 0.78zm-9.11 4.54l-20.44 -11.8 1.57 -2.72 20.44 11.8 -1.57 2.72zm-20.44 -11.8c-1.73,-1 -3.07,-2.78 -3.81,-4.84 -0.73,-2 -0.92,-4.3 -0.38,-6.4l3.04 0.78c-0.38,1.47 -0.24,3.11 0.29,4.55 0.5,1.4 1.36,2.57 2.43,3.19l-1.57 2.72zm-4.19 -11.24l6.68 -26.05 3.04 0.77 -6.68 26.06 -3.04 -0.78zm6.67 -26.05c0.2,-0.79 0.5,-1.51 0.88,-2.16 0.71,-1.24 1.69,-2.16 2.82,-2.69 1.18,-0.56 2.49,-0.7 3.8,-0.36 0.54,0.14 1.08,0.36 1.61,0.66l-1.56 2.72c-0.28,-0.16 -0.55,-0.27 -0.82,-0.34 -0.59,-0.14 -1.18,-0.08 -1.69,0.16 -0.55,0.26 -1.06,0.75 -1.44,1.42 -0.23,0.38 -0.41,0.84 -0.55,1.36l-3.05 -0.77zm9.12 -4.55l20.44 11.81 -1.58 2.71 -20.44 -11.8 1.58 -2.72zm179.64 159.52c1.73,1 3.07,2.78 3.82,4.84 0.73,2 0.91,4.3 0.37,6.4l-3.05 -0.77c0.38,-1.49 0.25,-3.13 -0.28,-4.56 -0.5,-1.39 -1.36,-2.57 -2.43,-3.19l1.57 -2.72zm4.19 11.24l-6.68 26.05 -3.04 -0.77 6.68 -26.05 3.04 0.77zm-6.68 26.05c-0.21,0.81 -0.5,1.54 -0.87,2.17 -0.71,1.24 -1.69,2.15 -2.82,2.69 -1.17,0.55 -2.48,0.69 -3.81,0.35 -0.54,-0.14 -1.08,-0.36 -1.6,-0.66l1.56 -2.72c0.28,0.16 0.55,0.27 0.82,0.34 0.59,0.15 1.17,0.09 1.69,-0.16 0.55,-0.26 1.05,-0.74 1.44,-1.41 0.23,-0.4 0.42,-0.86 0.55,-1.37l3.04 0.77zm-9.1 4.55l-20.44 -11.8 1.56 -2.72 20.44 11.8 -1.56 2.72zm-20.44 -11.8c-1.75,-1.01 -3.08,-2.79 -3.83,-4.84 -0.73,-1.99 -0.9,-4.29 -0.36,-6.4l3.04 0.77c-0.38,1.48 -0.25,3.12 0.28,4.56 0.5,1.39 1.35,2.57 2.43,3.19l-1.56 2.72zm-4.19 -11.24l6.67 -26.05 3.04 0.77 -6.67 26.05 -3.04 -0.77zm6.67 -26.05c0.2,-0.8 0.5,-1.53 0.87,-2.18 0.72,-1.23 1.7,-2.15 2.82,-2.68 1.17,-0.56 2.48,-0.7 3.8,-0.36 0.55,0.15 1.1,0.37 1.62,0.67l-1.58 2.72c-0.28,-0.16 -0.55,-0.28 -0.82,-0.35 -0.59,-0.14 -1.17,-0.08 -1.68,0.16 -0.55,0.26 -1.05,0.74 -1.44,1.4 -0.22,0.39 -0.41,0.86 -0.54,1.39l-3.05 -0.77zm9.1 -4.55l20.44 11.8 -1.56 2.72 -20.44 -11.8 1.56 -2.72zm58.58 33.82c1.75,1.01 3.09,2.78 3.83,4.84 0.73,1.99 0.91,4.29 0.36,6.4l-3.03 -0.77c0.37,-1.49 0.24,-3.12 -0.28,-4.56 -0.51,-1.39 -1.36,-2.57 -2.44,-3.19l1.56 -2.72zm4.19 11.24l-6.67 26.05 -3.04 -0.77 6.68 -26.05 3.03 0.77zm-6.67 26.05c-0.21,0.81 -0.5,1.54 -0.87,2.18 -0.71,1.23 -1.7,2.15 -2.82,2.68 -1.17,0.56 -2.47,0.69 -3.8,0.35 -0.55,-0.14 -1.09,-0.36 -1.62,-0.66l1.58 -2.72c0.28,0.16 0.56,0.28 0.82,0.35 0.58,0.14 1.16,0.08 1.68,-0.16 0.56,-0.27 1.06,-0.74 1.44,-1.4 0.23,-0.41 0.42,-0.87 0.55,-1.39l3.04 0.77zm-9.1 4.55l-20.44 -11.8 1.56 -2.72 20.44 11.8 -1.56 2.72zm-20.44 -11.8c-1.75,-1.01 -3.08,-2.78 -3.83,-4.84 -0.72,-1.99 -0.9,-4.29 -0.36,-6.4l3.04 0.77c-0.38,1.49 -0.25,3.12 0.28,4.56 0.5,1.39 1.35,2.57 2.43,3.19l-1.56 2.72zm-4.19 -11.24l6.67 -26.05 3.04 0.77 -6.67 26.05 -3.04 -0.77zm6.67 -26.05c0.2,-0.79 0.5,-1.53 0.88,-2.18 0.71,-1.23 1.69,-2.15 2.81,-2.68 1.17,-0.56 2.48,-0.7 3.8,-0.36 0.55,0.15 1.1,0.37 1.62,0.67l-1.58 2.72c-0.28,-0.16 -0.55,-0.28 -0.82,-0.35 -0.59,-0.14 -1.17,-0.08 -1.68,0.16 -0.55,0.27 -1.05,0.74 -1.43,1.4 -0.23,0.39 -0.42,0.86 -0.55,1.39l-3.05 -0.77zm9.1 -4.55l20.44 11.8 -1.56 2.72 -20.44 -11.8 1.56 -2.72zm-68.28 16.37c1.73,1 3.06,2.78 3.8,4.83 0.73,1.99 0.91,4.29 0.36,6.4l-3.03 -0.78c0.37,-1.48 0.24,-3.11 -0.28,-4.55 -0.5,-1.39 -1.35,-2.56 -2.43,-3.18l1.58 -2.72zm4.16 11.23l-6.67 26.05 -3.04 -0.77 6.68 -26.06 3.03 0.78zm-6.67 26.05c-0.21,0.81 -0.51,1.54 -0.88,2.18 -0.71,1.23 -1.69,2.15 -2.81,2.68 -1.17,0.56 -2.47,0.69 -3.79,0.36 -0.54,-0.14 -1.08,-0.36 -1.61,-0.66l1.57 -2.72c0.27,0.16 0.55,0.27 0.81,0.34 0.58,0.15 1.16,0.08 1.67,-0.16 0.56,-0.27 1.07,-0.75 1.45,-1.41 0.23,-0.4 0.42,-0.86 0.55,-1.38l3.04 0.77zm-9.09 4.56l-20.45 -11.81 1.56 -2.72 20.46 11.81 -1.57 2.72zm-20.45 -11.81c-1.74,-1.01 -3.07,-2.78 -3.82,-4.83 -0.72,-2 -0.9,-4.29 -0.36,-6.41l3.04 0.78c-0.38,1.48 -0.24,3.12 0.28,4.56 0.5,1.38 1.35,2.56 2.42,3.18l-1.56 2.72zm-4.18 -11.24l6.68 -26.05 3.04 0.78 -6.68 26.05 -3.04 -0.78zm6.68 -26.05c0.2,-0.8 0.5,-1.53 0.87,-2.17 0.71,-1.24 1.69,-2.16 2.81,-2.69 1.17,-0.55 2.48,-0.69 3.8,-0.35 0.55,0.14 1.09,0.36 1.61,0.66l-1.58 2.72c-0.28,-0.16 -0.55,-0.28 -0.81,-0.34 -0.58,-0.15 -1.15,-0.09 -1.67,0.15 -0.56,0.27 -1.06,0.75 -1.44,1.41 -0.23,0.4 -0.42,0.87 -0.55,1.39l-3.04 -0.78zm9.08 -4.55l20.46 11.81 -1.56 2.72 -20.46 -11.81 1.56 -2.72zm58.61 33.83c1.73,1 3.06,2.78 3.81,4.84 0.73,2 0.92,4.29 0.38,6.4l-3.06 -0.78c0.39,-1.48 0.25,-3.12 -0.27,-4.55 -0.51,-1.39 -1.36,-2.57 -2.44,-3.19l1.58 -2.72zm4.18 11.24l-6.67 26.05 -3.04 -0.77 6.67 -26.06 3.04 0.78zm-6.67 26.05c-0.21,0.81 -0.51,1.54 -0.87,2.17 -0.71,1.23 -1.7,2.15 -2.83,2.68 -1.17,0.56 -2.48,0.7 -3.8,0.36 -0.54,-0.14 -1.08,-0.36 -1.6,-0.66l1.56 -2.72c0.27,0.16 0.55,0.27 0.81,0.34 0.59,0.15 1.17,0.09 1.69,-0.16 0.56,-0.26 1.06,-0.74 1.45,-1.41 0.23,-0.41 0.42,-0.86 0.55,-1.37l3.04 0.77zm-9.1 4.55l-20.45 -11.8 1.57 -2.72 20.44 11.8 -1.56 2.72zm-20.45 -11.8c-1.74,-1.01 -3.08,-2.79 -3.82,-4.84 -0.73,-2 -0.91,-4.29 -0.37,-6.41l3.04 0.78c-0.38,1.48 -0.24,3.12 0.28,4.56 0.51,1.39 1.36,2.56 2.44,3.19l-1.57 2.72zm-4.19 -11.25l6.68 -26.05 3.04 0.78 -6.68 26.05 -3.04 -0.78zm6.67 -26.05c0.21,-0.8 0.51,-1.53 0.88,-2.18 0.71,-1.23 1.69,-2.14 2.82,-2.67 1.16,-0.56 2.47,-0.7 3.79,-0.36 0.55,0.14 1.1,0.36 1.63,0.67l-1.58 2.72c-0.28,-0.17 -0.56,-0.28 -0.82,-0.35 -0.59,-0.15 -1.17,-0.08 -1.68,0.16 -0.56,0.26 -1.06,0.74 -1.44,1.4 -0.23,0.4 -0.41,0.86 -0.55,1.39l-3.05 -0.78zm9.11 -4.54l20.44 11.8 -1.56 2.72 -20.44 -11.8 1.56 -2.72zm-203.25 -270.27l-2.92 11.37 -2.04 -1.18 2.03 -7.94 -1.77 0.38 0.66 -2.57 3.06 -0.62 0.98 0.56zm37.09 21.17c3.05,1.77 2.8,4.56 2.43,5.99 -0.68,2.67 -4.32,3.45 -4.51,3.49l3.31 1.92 -0.58 2.27 -6.96 -4.02 0.17 -0.66c0.29,-0.11 5.85,-2.18 6.38,-4.26 0.11,-0.42 0.38,-1.85 -0.81,-2.53 -0.97,-0.57 -2.08,1.14 -2.14,1.23l-1.43 -2.02c0.08,-0.14 1.7,-2.81 4.14,-1.41zm37.98 21.93c1.7,0.98 2.58,3.06 2.08,5 -0.23,0.93 -0.73,1.48 -1.34,1.67 0.56,0.94 0.78,2.07 0.47,3.27 -0.55,2.17 -2.35,2.93 -4.27,1.83 -2.74,-1.59 -2.62,-4.59 -2.62,-4.74l2.18 -0.08c-0.02,0.09 -0.33,1.81 1.01,2.58 0.75,0.43 1.42,0.21 1.67,-0.76 0.25,-0.98 -0.13,-2.01 -0.85,-2.42 -0.23,-0.13 -0.4,-0.14 -0.41,-0.14l0.43 -1.7 0.44 0.26c0.54,0.3 1.23,0.01 1.44,-0.81 0.18,-0.73 -0.21,-1.57 -0.78,-1.9 -1.12,-0.65 -1.66,0.57 -1.69,0.64l-1.35 -1.92c0.05,-0.11 1.09,-2.22 3.59,-0.78zm39.45 30.71l1.04 0.6 -0.59 2.27 -1.03 -0.6 -0.62 2.4 -1.9 -1.1 0.62 -2.4 -4.4 -2.53 0.2 -0.79 6.38 -5.71 2.02 1.16 -1.72 6.7zm-1.9 -1.1l0 0 0.83 -3.25 -0.03 -0.01 -2.42 2.32 1.62 0.94zm40.8 15.87l-0.58 2.27 -2.81 -1.62 -0.6 1.46 0.25 0.14c1.68,0.97 3.11,2.75 2.3,5.91 -0.56,2.17 -2.35,2.94 -4.27,1.83 -1.9,-1.09 -2.5,-2.96 -2.54,-4.32l1.87 -0.05c-0.01,0.8 0.3,1.67 1.23,2.2 0.74,0.43 1.45,0.06 1.7,-0.91 0.39,-1.51 -0.64,-2.67 -1.8,-3.35 -0.75,-0.43 -1.31,-0.51 -1.62,-0.51l2.31 -5.69 4.56 2.64zm35.73 24.89c1.21,0.71 2.49,2.99 1.81,5.63 -0.69,2.69 -2.67,2.9 -4.3,1.96 -1.99,-1.15 -3.12,-3.75 -2.56,-5.92 0.51,-2 1.22,-2.64 2.57,-3.71l2.91 -1.98 2.52 1.46 -3.63 2.37c0.02,-0.01 0.27,-0.04 0.68,0.19zm-2.03 5.38l0 0c0.79,0.46 1.56,0.08 1.82,-0.92 0.25,-1.01 -0.15,-2.1 -0.93,-2.55 -0.75,-0.43 -1.54,-0.03 -1.8,0.98 -0.25,0.99 0.13,2.04 0.91,2.49zm44.29 14.75l-0.2 0.74 -7.44 7.91 -2.4 -1.39 6.43 -6.73 -3.82 -2.21 0.58 -2.27 6.85 3.95zm35.2 26.33c0.76,1.04 1.18,2.41 0.77,3.98 -0.48,1.91 -2.49,2.32 -4.16,1.35 -1.74,-1 -2.99,-3.29 -2.51,-5.2 0.41,-1.57 1.33,-2.17 2.35,-2.18 -0.55,-0.89 -0.84,-2 -0.52,-3.26 0.43,-1.68 2.22,-2 3.68,-1.15 1.53,0.88 2.62,2.86 2.19,4.54 -0.32,1.26 -1,1.81 -1.8,1.92zm-2.83 3.09l0 0c0.64,0.37 1.29,0.03 1.5,-0.79 0.23,-0.87 -0.13,-1.74 -0.76,-2.11 -0.63,-0.36 -1.27,-0.06 -1.49,0.8 -0.21,0.83 0.08,1.71 0.75,2.1zm1.96 -7.6l0 0c-0.57,-0.33 -1.15,-0.02 -1.33,0.7 -0.2,0.76 0.12,1.54 0.67,1.86 0.57,0.33 1.11,0.05 1.31,-0.72 0.18,-0.72 -0.06,-1.5 -0.65,-1.84zm38.27 19.86c1.99,1.15 3.12,3.73 2.57,5.9 -0.52,2 -1.23,2.66 -2.57,3.74l-2.92 1.97 -2.5 -1.44 3.63 -2.4c-0.01,0.01 -0.27,0.04 -0.69,-0.2 -1.22,-0.71 -2.5,-2.99 -1.82,-5.63 0.69,-2.69 2.69,-2.87 4.3,-1.94zm-1.35 5.68l0 0c0.75,0.43 1.54,0.03 1.81,-1 0.25,-0.99 -0.11,-2.03 -0.91,-2.49 -0.8,-0.46 -1.57,-0.08 -1.82,0.92 -0.26,1.03 0.16,2.13 0.92,2.57zm40.22 16.76c1.91,1.11 3.12,4.04 2.11,7.98 -1.08,4.22 -3.22,4.91 -5.13,3.81 -1.92,-1.11 -3.21,-3.77 -2.13,-7.99 1.02,-3.95 3.23,-4.9 5.15,-3.8zm-2.44 9.51l0 0c0.98,0.57 1.86,-0.25 2.49,-2.71 0.58,-2.3 0.34,-3.96 -0.63,-4.52 -0.99,-0.57 -1.93,0.4 -2.52,2.7 -0.63,2.46 -0.33,3.96 0.66,4.53zm-353.43 -145.5l0.2 2.11c-0.05,0.06 -0.98,1.22 -2.39,0.4 -1.33,-0.77 -1.61,-2.16 -2.99,-2.96 -0.84,-0.48 -1.44,-0.13 -1.47,-0.11l-0.25 -1.24c0.06,-0.04 1.11,-0.83 1.76,-0.45l0.02 -0.07c-2,-1.74 -2.79,-4.9 -2.04,-7.82 0.85,-3.33 3.5,-4.74 5.95,-3.32 2.48,1.43 3.79,5.13 2.94,8.46 -0.69,2.7 -2.53,4.21 -4.56,3.84l-0.02 0.06c0.21,0.12 0.79,0.77 1.33,1.08 0.91,0.52 1.49,0.05 1.52,0.02zm-4.96 -8.86l0 0c-0.43,1.69 -0.25,3.62 1.4,4.58 1.62,0.93 2.65,-0.3 3.08,-2 0.44,-1.69 0.19,-3.66 -1.39,-4.58 -1.56,-0.9 -2.65,0.3 -3.09,2zm48.69 21.58l-5.45 9.91 -2.25 -1.31 0.2 -7.19 -3.06 5.55 -2.25 -1.31 0.36 -12.84 2.26 1.3 -0.48 8.7 0.07 0.04 3.62 -6.88 1.53 0.88 -0.39 8.75 0.07 0.04 3.53 -6.94 2.24 1.3zm34.26 19.78l-0.58 2.27 -3.07 -1.77 -0.58 2.28 2.94 1.69 -0.59 2.28 -2.93 -1.7 -0.59 2.27 3.07 1.78 -0.58 2.27 -5.1 -2.94 2.92 -11.37 5.09 2.94zm35.49 28.15l1.86 6.47 -2.58 -1.49 -1.57 -6.06 -1.15 4.49 -2.03 -1.18 2.91 -11.37 3.2 1.85c1.66,0.95 2.61,2.83 2.04,5.06 -0.44,1.7 -1.47,2.44 -2.68,2.23zm-1.58 -2.78l0 0c0.77,0.44 1.71,0.91 2.07,-0.52 0.36,-1.4 -0.54,-2.02 -1.3,-2.46l-0.25 -0.14 -0.76 2.98 0.24 0.14zm42.34 18.65l-0.58 2.28 -2.11 -1.22 -2.33 9.1 -2.05 -1.18 2.33 -9.1 -2.11 -1.22 0.59 -2.27 6.26 3.61zm39.94 23.06l-4.9 4.38 -1.3 5.09 -2.03 -1.17 1.3 -5.09 -1.68 -8.18 2.45 1.41 0.93 4.72 2.78 -2.57 2.45 1.41zm37.04 21.39l-1.88 7.33c-0.72,2.82 -2.29,3.55 -4.56,2.24 -2.27,-1.31 -3.12,-3.44 -2.4,-6.25l1.88 -7.34 2.04 1.18 -1.68 6.57c-0.49,1.91 -0.18,2.72 0.81,3.3 0.99,0.57 1.59,0.27 2.08,-1.63l1.68 -6.58 2.03 1.18zm36.31 20.96l-2.92 11.37 -2.02 -1.17 2.91 -11.37 2.03 1.17zm36.91 21.07c2.48,1.43 3.82,5.15 2.97,8.48 -0.86,3.33 -3.43,4.79 -5.99,3.31 -2.65,-1.53 -3.84,-5.16 -2.98,-8.49 0.85,-3.33 3.55,-4.71 6,-3.3zm-2.38 9.29l0 0c1.62,0.93 2.72,-0.38 3.16,-2.08 0.43,-1.69 0.15,-3.8 -1.42,-4.71 -1.58,-0.91 -2.74,0.37 -3.17,2.06 -0.44,1.7 -0.24,3.76 1.43,4.73zm41.39 13.47c1.74,1 2.75,2.92 2.15,5.28 -0.6,2.34 -2.25,2.88 -3.98,1.88l-1.22 -0.71 -1.08 4.22 -2.04 -1.18 2.91 -11.37 3.26 1.88zm-1.95 4.71l0 0c0.79,0.46 1.64,0.57 1.94,-0.58 0.3,-1.18 -0.37,-1.97 -1.17,-2.43l-0.56 -0.33 -0.78 3.02 0.57 0.32zm-335.55 -142.84l0.69 13.45 -2.19 -1.26 -0.07 -2.65 -3.39 -1.96 -1.24 1.89 -2.19 -1.26 6.51 -9.29 1.88 1.08zm-3.69 5.7l0 0 2.01 1.16 -0.14 -3.88 -0.03 -0.02 -1.84 2.74zm41.89 16.12c1.6,0.92 2.44,2.58 2.48,2.66l-1.36 1.59c-0.03,-0.06 -0.67,-1.29 -1.6,-1.82 -0.68,-0.4 -1.15,-0.22 -1.31,0.4 -0.16,0.64 0.56,1.58 1.44,2.73 0.85,1.11 1.66,2.81 1.28,4.3 -0.69,2.71 -2.56,2.73 -4.29,1.72 -2.1,-1.2 -2.93,-3.33 -2.97,-3.44l1.57 -1.58c0.05,0.09 0.86,1.96 1.87,2.54 0.43,0.25 1.29,0.68 1.56,-0.37 0.22,-0.83 -0.65,-1.76 -1.53,-3.05 -0.9,-1.28 -1.26,-2.7 -0.95,-3.9 0.54,-2.13 2.36,-2.62 3.81,-1.78zm36.74 21.45c2.45,1.41 3.9,4.98 3.05,8.28 -0.85,3.31 -3.5,4.51 -5.97,3.09l-2.58 -1.49 2.92 -11.37 2.58 1.49zm-2.55 8.92l0 0c1.49,0.86 2.91,-0.01 3.4,-1.91 0.48,-1.9 -0.16,-3.96 -1.67,-4.83l-0.33 -0.19 -1.72 6.74 0.32 0.19zm44.83 15.48l-0.59 2.28 -3.13 -1.81 -0.58 2.25 2.89 1.67 -0.58 2.28 -2.89 -1.67 -1.17 4.57 -2.03 -1.17 2.92 -11.37 5.16 2.97zm34.38 19.62c1.57,0.91 2.47,2.28 2.94,3.93l-1.81 1.09c-0.25,-1.35 -0.83,-2.14 -1.62,-2.6 -1.25,-0.72 -2.68,0.26 -3.18,2.22 -0.5,1.95 0.12,4.11 1.37,4.83 0.97,0.56 2.15,0.32 2.51,-1.07l-2.06 -1.19 0.51 -2 4.12 2.38 -0.63 2.46c-1.23,2.61 -3.42,2.74 -5.17,1.73 -2.4,-1.38 -3.68,-5.13 -2.84,-8.4 0.84,-3.27 3.36,-4.83 5.86,-3.38zm42.08 24.53l-2.92 11.37 -2.04 -1.18 1.17 -4.57 -2.87 -1.66 -1.17 4.57 -2.03 -1.17 2.91 -11.37 2.03 1.17 -1.16 4.53 2.87 1.66 1.16 -4.53 2.05 1.18zm36.39 21.01l-2.1 8.17c-0.57,2.23 -1.86,2.84 -3.65,1.8 -1.28,-0.73 -1.78,-2.22 -1.81,-2.3l1.2 -1.77c0.02,0.05 0.44,1.13 0.96,1.43 0.58,0.33 1.15,0.14 1.44,-1l1.93 -7.5 2.03 1.17zm40.72 23.51l-4.97 3.32 2.62 8.38 -2.81 -1.62 -2.04 -6.71 -1.23 4.82 -2.05 -1.18 2.92 -11.38 2.04 1.18 -1.19 4.66 4.24 -2.9 2.47 1.43zm33.54 19.37l-2.33 9.1 3.07 1.77 -0.58 2.27 -5.11 -2.95 2.91 -11.37 2.04 1.18zm-324.96 -131.73l1.7 10.88 -2.92 -1.68 -0.98 3.82 -1.97 -1.13 0.99 -3.83 -2.93 -1.68 6.11 -6.38zm49.78 29.57l-6.74 6.55 4.12 2.38 -0.59 2.28 -7.67 -4.43 6.74 -6.55 -3.78 -2.19 0.59 -2.27 7.33 4.23zm38.01 21.95l-4.27 3.57 1.92 8.13 -2.62 -1.52 -1.12 -5.1 -3.1 2.67 -2.53 -1.46 4.94 -4.18 -1.46 -6.87 2.42 1.4 0.86 4.05 2.43 -2.15 2.53 1.46zm35.71 20.38c1.93,1.12 2.62,2.64 2.66,2.72l-1.43 1.72c-0.03,-0.06 -0.53,-1.12 -1.57,-1.72 -2.05,-1.18 -3.4,0.13 -3.79,1.63 -0.39,1.54 0.03,3.87 2.08,5.05 1.04,0.6 1.89,0.32 1.93,0.31l0.29 2.71c-0.06,0.02 -1.26,0.48 -3.19,-0.63 -2.51,-1.46 -4.16,-5.42 -3.33,-8.67 0.84,-3.26 3.82,-4.58 6.35,-3.12zm40.44 23.59l-6.66 9.2 -1.59 -0.91 -0.83 -13.54 2.29 1.32 0.34 8.77 4.17 -6.16 2.28 1.32zm34.31 25.93c1.06,0.89 1.63,2.13 1.17,3.95 -0.48,1.88 -1.89,2.56 -3.74,1.5l-3.37 -1.95 2.91 -11.38 2.76 1.6c1.54,0.89 2.57,2.31 2.02,4.48 -0.27,1.04 -0.86,1.74 -1.75,1.8zm-2.77 3.03l0 0c0.98,0.56 1.59,0.49 1.82,-0.4 0.27,-1.06 -0.16,-1.73 -1.13,-2.29l-0.63 -0.37 -0.69 2.69 0.63 0.37zm1.26 -7.75l0 0 -0.63 2.46 0.16 0.1c0.88,0.5 1.44,0.42 1.68,-0.53 0.21,-0.81 -0.15,-1.42 -1.05,-1.93l-0.16 -0.1zm43.11 22.61l-2.91 11.37 -2.03 -1.17 -1.74 -9.12 -1.83 7.06 -2.03 -1.17 2.92 -11.37 2.02 1.17 1.75 9.1 1.82 -7.04 2.03 1.17zm39.1 22.57l-2.12 11.84 -2.03 -1.17 1.31 -6.99 -0.05 -0.03 -3.54 5.6 -1.22 -0.7 -0.11 -7.71 -0.06 -0.03 -2.15 6.49 -2.03 -1.17 3.71 -10.91 2.17 1.25 0.29 7.69 3.67 -5.4 2.16 1.24zm46.28 27.13l0.97 2.67 -4.81 2.54 2.44 6.7 -1.92 1.01 -2.45 -6.71 -4.8 2.52 -0.97 -2.67 4.8 -2.52 -2.43 -6.72 1.91 -1.01 2.44 6.7 4.82 -2.51zm-347.34 -144.45c1.62,0.93 2.46,2.59 2.5,2.67l-1.35 1.57c-0.04,-0.06 -0.69,-1.3 -1.6,-1.82 -0.7,-0.41 -1.18,-0.21 -1.34,0.41 -0.16,0.62 0.59,1.57 1.45,2.71 0.85,1.11 1.68,2.82 1.3,4.31 -0.7,2.71 -2.56,2.73 -4.31,1.72 -2.08,-1.2 -2.92,-3.31 -2.96,-3.42l1.58 -1.6c0.04,0.09 0.85,1.96 1.85,2.53 0.45,0.26 1.29,0.7 1.56,-0.37 0.21,-0.83 -0.63,-1.75 -1.52,-3.02 -0.91,-1.31 -1.25,-2.72 -0.95,-3.9 0.54,-2.13 2.36,-2.62 3.79,-1.79zm16.98 14.71c1,0.58 1.99,1.91 1.48,3.87l-1.19 4.66 -1.91 -1.11 1.02 -3.99c0.18,-0.7 0.05,-1.49 -0.64,-1.89 -0.6,-0.34 -1,0.07 -1.17,0.58l-1.08 4.22 -1.91 -1.1 1.02 -3.99c0.18,-0.71 0.05,-1.5 -0.64,-1.89 -0.63,-0.36 -1.03,0.12 -1.17,0.67l-1.06 4.14 -1.92 -1.11 1.81 -7.07 1.92 1.11 -0.19 0.74c0.59,-0.27 1.25,-0.37 1.85,-0.02 0.73,0.42 1.45,1.24 1.59,2.42 0.82,-0.56 1.57,-0.59 2.19,-0.24zm-7.79 -4.26l-7.1 8.15 -2.21 -1.27 3.12 -3.59 -1.1 -7.5 2.21 1.28 0.62 4.54 2.25 -2.88 2.21 1.27zm46.19 25.39l1.28 0.74 -0.73 2.87c-0.01,0.03 -0.12,0.6 0.4,0.9 0.47,0.27 0.77,0.06 1.03,-0.95 0.55,-2.17 -0.5,-4.51 -2.38,-5.6 -1.84,-1.06 -3.76,-0.08 -4.34,2.17 -0.58,2.26 0.48,4.81 2.28,5.85 1.43,0.83 2.23,0.25 2.27,0.22l0.98 1.8c-0.07,0.06 -1.41,1.28 -3.75,-0.07 -2.63,-1.52 -4.25,-5.21 -3.36,-8.71 0.9,-3.49 3.75,-4.57 6.38,-3.06 2.53,1.46 4.03,4.9 3.2,8.14 -0.55,2.15 -1.91,2.36 -2.96,1.75 -0.59,-0.33 -1.09,-0.91 -1.35,-1.51l-0.14 0.13c-0.42,0.24 -0.99,0.29 -1.56,-0.04 -1.18,-0.68 -1.72,-2.42 -1.33,-3.95 0.4,-1.57 1.58,-2.32 2.76,-1.63 0.57,0.33 0.96,0.86 1.2,1.45l0.12 -0.5zm-1.81 3.23l0 0c0.49,0.28 0.98,0.02 1.15,-0.62 0.16,-0.65 -0.11,-1.35 -0.58,-1.62 -0.48,-0.28 -0.99,-0.03 -1.16,0.61 -0.16,0.64 0.07,1.33 0.59,1.63zm37.39 23.34c0.68,0.39 1.06,1.42 0.83,2.28 -0.43,1.68 -1.69,2.49 -2.83,2.92l-0.4 -0.89c0.04,-0.02 0.85,-0.41 1.32,-1.47 -0.49,-0.47 -0.74,-1.24 -0.55,-1.98 0.22,-0.87 0.95,-1.25 1.63,-0.86zm191.13 110.35c0.7,0.4 1.07,1.42 0.85,2.29 -0.23,0.87 -0.96,1.25 -1.66,0.85 -0.68,-0.39 -1.05,-1.41 -0.83,-2.28 0.23,-0.87 0.96,-1.26 1.64,-0.86zm56.06 21.8l-2.11 8.23 -8.81 -5.09 -0.77 2.98 -1.96 -5.41 3.88 -2.05 -0.77 2.99 7.62 4.41 1.73 -6.74 1.19 0.68z"/>
</g>
<g id="_2302673073168">
<ellipse class="fil5" cx="166.08" cy="785.47" rx="96.12" ry="54.63"/>
<path class="fil6" d="M145.49 394.69c-1.75,0.51 -9.79,6.33 -18.94,14.38 -0.01,0 -0.01,0.01 -0.02,0.01 -2.27,2 -4.61,4.13 -6.94,6.36 0,0 0,0.01 -0.01,0.01 -4.26,4.07 -8.47,8.45 -12.18,12.85 0,0 0,0 0,0 -3.97,4.71 -7.35,9.45 -9.55,13.86 0,0 -0.01,0.01 -0.01,0.02 -2.85,5.73 -3.73,10.92 -1.29,14.79 10.89,17.31 38.04,13.08 48.95,11.19 10.9,-1.89 17.54,-78.58 -0.01,-73.47z"/>
<path class="fil7" d="M124.09 749.81c1.99,-0.59 40.01,-12.55 47.04,-4.72 7.04,7.83 -11.56,26.3 -25.86,35.15 -14.29,8.84 -29.7,14.14 -37.68,1.03 -7.99,-13.1 1.29,-26.92 16.5,-31.46z"/>
<path class="fil8" d="M103.07 590.54c-3.69,-107.11 40.43,-114.08 51.9,-20.08 0,0 4.52,109.76 3.06,132.88 -1.73,27.56 -1.34,59.73 -1.34,59.73 0,0 -36.06,29.38 -52.9,6.01 0,0 0.06,-155.94 -0.72,-178.54z"/>
<path class="fil7" d="M186.61 768.24c2.09,-0.6 41.95,-12.72 49.23,-4.46 7.28,8.25 -12.35,27.38 -27.39,36.48 -15.03,9.11 -31.19,14.49 -39.41,0.71 -8.22,-13.78 1.62,-28.14 17.57,-32.73z"/>
<path class="fil8" d="M162.94 606.97c0.78,22.6 0.71,178.54 0.71,178.54 16.84,23.37 53.65,-5.46 53.65,-5.46 0,0 -1.14,-32.72 0.6,-60.28 1.46,-23.12 -3.07,-132.88 -3.07,-132.88 -13.83,-113.42 -54.56,-56.75 -51.89,20.08z"/>
<path class="fil9" d="M79.61 565.02c0,0 31.01,-75.2 42.91,-108.82 7.03,-19.84 14.2,-61.01 32.97,-70.8 9.5,-4.96 22.92,0.23 32.38,1.91 9.37,1.66 33.58,12.15 39.63,21.17 8.14,12.15 2.73,39.68 2,80.7 -1.44,81.06 -4.64,118.75 -4.64,118.75 -59.91,-12.87 -100.76,19.42 -145.25,-42.91z"/>
<path class="fil10" d="M218.2 345.17c-1.51,-5.52 0.74,-13.95 -1.41,-19.14 -1.86,-4.5 -5.27,-8.92 -9.98,-10.44 -0.88,-0.29 -1.81,-0.47 -2.78,-0.53 -14.6,-0.94 -27.52,6.69 -28.63,21.93 -0.69,9.43 1.89,20.12 6.35,28.47 0.35,0.67 0.64,1.47 0.89,2.32l-7.9 -1.6c0,0 -6.3,20.3 -6.03,22.24 0.27,1.93 9.47,15.84 29.46,7.16 0,0 1.98,-11.88 3.95,-14.08 1.97,-2.21 12.48,-0.38 14.45,-2.58 1.97,-2.21 1.34,-16.88 2.53,-19.9 0.42,-1.08 1.19,-1.2 3.19,-1.23 2.15,-0.04 -3.32,-9.78 -4.09,-12.62z"/>
<path class="fil7" d="M192.08 373.08c3.56,-7.15 -9.18,-18.69 -7.88,-25.6 0.24,-1.29 0.88,-2.65 2.08,-3.2 2.61,-1.28 3.76,2.3 4.71,3.93 0.88,1.53 3.23,8.47 5.57,8.27 9.39,-0.79 3.44,-15.85 6.52,-21.35 1.51,-2.68 4.76,-4.58 7.47,-5.91 0,0 21.48,-9.36 16.91,-21.68 -5.64,-15.25 -31.84,4.44 -35.14,5.47 -10.75,3.37 -23.01,4.48 -28.4,15.72 -6.94,14.47 -1.79,30.44 7.21,42.72 3.73,5.08 11.26,7.99 17.17,5.06 1.93,-0.96 3.13,-2.12 3.78,-3.43z"/>
<g>
<path class="fil10" d="M356.67 448c0.62,-0.9 1.4,-6.46 8.23,-8.04 6.83,-1.58 14.88,-1.84 14.88,-1.84 0,0 7.75,5.24 7.83,7.39 0.09,2.14 26.12,2.38 27.38,5.63 1.27,3.25 -3.16,3.47 -5.33,3.9 -2.17,0.44 -15.25,0.71 -15.25,0.71 0,0 6.67,3.77 -0.04,7.34 0,0 2.16,3.92 -5.12,5.82 0,0 2.32,4.32 -4.03,5.46 -6.35,1.15 -26.11,-3.57 -26.63,-4.57 -0.51,-1 -20.22,0.54 -23.17,0.76 -2.95,0.23 0.74,-22.7 0.74,-22.7l20.51 0.14z"/>
<path class="fil6" d="M230.7 406.82c-13.13,-5.08 -26.52,-6.46 -37.08,7.79 -29.09,39.26 43.72,57.27 67.76,62.67 17.79,3.99 35.88,6.86 54.02,8.69 7.85,0.8 21.76,4.26 29.43,0.98 8.14,-3.48 17.71,-40.68 8.31,-48.18 -12.08,-9.65 -42.98,-6.68 -57.6,-9.29 -14.56,-2.6 -29.16,-6.16 -42.67,-12.3 -6.88,-3.13 -14.48,-7.38 -22.17,-10.36z"/>
</g>
</g>
<path class="fil3" d="M270.98 36.61c155.68,89.96 -78.84,-45.55 76.84,44.4 155.68,89.96 200.79,116.01 356.57,206.03 12.29,7.1 23.43,18.41 31.53,30.78 8.07,12.31 13.2,25.83 13.2,37.53 0,0 0,0 0,0 0,11.71 -5.13,19.32 -13.2,22.32 -8.1,3.02 -19.24,1.28 -31.53,-5.81 -155.78,-89.96 -200.88,-116.01 -356.57,-205.97 -155.68,-89.95 78.84,45.56 -76.84,-44.4 -12.29,-7.09 -23.41,-18.28 -31.53,-30.7 -8.05,-12.33 -13.1,-25.84 -13.1,-37.47 0,0 0,0 0,-0.07 0,-11.63 5,-19.37 13.1,-22.39 8.07,-3 19.24,-1.34 31.53,5.75z"/>
<g>
<path class="fil6" d="M348.53 79.78l-1.42 2.46 0 0 -13.48 -7.78 -11.33 -6.55 -9.33 -5.39 -7.47 -4.32 -5.76 -3.33 -4.19 -2.42 -2.76 -1.59 -1.47 -0.85 1.09 -2.65 0.67 0.39 1.53 0.88 2.24 1.3 2.81 1.62 3.25 1.87 3.53 2.04 3.67 2.13 3.67 2.12 3.53 2.04 3.24 1.87 2.82 1.63 2.24 1.29 1.53 0.89 0.67 0.38 -1.75 2.27 -1.47 -0.85 -2.76 -1.6 -4.19 -2.42 -5.76 -3.32 -7.47 -4.32 -9.33 -5.39 -11.34 -6.55 -13.47 -7.79 1.42 -2.46 13.47 7.79 11.33 6.55 9.34 5.39 7.47 4.32 5.76 3.33 4.19 2.42 2.76 1.59 1.47 0.85 -1.09 2.65 -0.67 -0.39 -1.53 -0.88 -2.24 -1.3 -2.82 -1.62 -3.24 -1.88 -3.53 -2.04 -3.67 -2.12 -3.67 -2.12 -3.53 -2.04 -3.25 -1.87 -2.81 -1.63 -2.24 -1.29 -1.53 -0.89 -0.67 -0.38 1.75 -2.27 1.47 0.85 2.76 1.59 4.19 2.42 5.76 3.33 7.47 4.32 9.33 5.39 11.33 6.55 13.48 7.78 0 0zm356.57 206.03l-1.42 2.46 0 0 -14.28 -8.26 -13.68 -7.9 -13.11 -7.58 -12.59 -7.27 -12.1 -6.99 -11.65 -6.73 -11.25 -6.5 -10.88 -6.29 -10.56 -6.1 -10.27 -5.94 -10.03 -5.79 -9.83 -5.68 -9.66 -5.59 -9.55 -5.51 -9.46 -5.47 -9.42 -5.44 -9.42 -5.44 -9.46 -5.47 -9.54 -5.51 -9.67 -5.59 -9.82 -5.67 -10.03 -5.8 -10.27 -5.93 -10.55 -6.1 -10.88 -6.28 -11.24 -6.5 -11.65 -6.72 -12.09 -6.99 -12.58 -7.27 -13.1 -7.57 -13.67 -7.9 -14.28 -8.25 1.42 -2.46 14.28 8.25 13.67 7.9 13.1 7.57 12.58 7.27 12.09 6.99 11.65 6.73 11.24 6.49 10.88 6.29 10.55 6.09 10.27 5.94 10.03 5.79 9.82 5.68 9.67 5.58 9.54 5.51 9.46 5.47 9.42 5.44 9.42 5.45 9.46 5.46 9.55 5.52 9.66 5.58 9.83 5.68 10.03 5.8 10.27 5.93 10.56 6.1 10.88 6.29 11.25 6.5 11.65 6.73 12.1 6.99 12.59 7.28 13.11 7.57 13.68 7.91 14.28 8.25 0 0zm32.01 31.23l-2.38 1.55 0 0 -0.76 -1.14 -0.77 -1.13 -0.79 -1.13 -0.81 -1.12 -0.83 -1.11 -0.84 -1.1 -0.86 -1.09 -0.87 -1.08 -0.88 -1.07 -0.9 -1.07 -0.92 -1.04 -0.93 -1.04 -0.94 -1.02 -0.95 -1.01 -0.97 -0.99 -0.98 -0.99 -0.99 -0.96 -1.01 -0.95 -1.01 -0.93 -1.03 -0.92 -1.03 -0.89 -1.05 -0.88 -1.05 -0.86 -1.07 -0.84 -1.07 -0.82 -1.08 -0.8 -1.09 -0.78 -1.1 -0.76 -1.11 -0.73 -1.11 -0.72 -1.12 -0.68 -1.13 -0.67 1.42 -2.46 1.17 0.69 1.17 0.72 1.15 0.74 1.15 0.76 1.14 0.78 1.12 0.81 1.12 0.83 1.11 0.85 1.1 0.86 1.09 0.89 1.08 0.91 1.07 0.92 1.05 0.95 1.05 0.96 1.03 0.97 1.02 0.99 1.01 1.01 0.99 1.02 0.99 1.04 0.96 1.05 0.96 1.07 0.94 1.07 0.92 1.09 0.91 1.1 0.9 1.11 0.88 1.12 0.86 1.14 0.85 1.14 0.83 1.15 0.81 1.15 0.8 1.17 0.78 1.17 0 0zm13.43 38.31l-2.83 0 0 0 -0.02 -1.06 -0.04 -1.08 -0.07 -1.08 -0.1 -1.1 -0.13 -1.1 -0.16 -1.12 -0.18 -1.12 -0.21 -1.13 -0.23 -1.14 -0.26 -1.15 -0.29 -1.15 -0.31 -1.16 -0.34 -1.16 -0.36 -1.16 -0.39 -1.17 -0.41 -1.17 -0.43 -1.18 -0.46 -1.17 -0.48 -1.18 -0.5 -1.18 -0.52 -1.18 -0.55 -1.18 -0.56 -1.18 -0.59 -1.17 -0.6 -1.18 -0.63 -1.17 -0.65 -1.17 -0.66 -1.16 -0.69 -1.16 -0.7 -1.15 -0.72 -1.15 -0.74 -1.15 2.38 -1.55 0.75 1.17 0.75 1.18 0.72 1.19 0.7 1.19 0.69 1.2 0.66 1.21 0.65 1.2 0.62 1.21 0.61 1.21 0.58 1.22 0.57 1.22 0.54 1.22 0.51 1.22 0.5 1.22 0.47 1.22 0.45 1.22 0.43 1.22 0.4 1.21 0.38 1.22 0.35 1.21 0.33 1.21 0.3 1.2 0.27 1.21 0.25 1.19 0.22 1.19 0.19 1.19 0.16 1.18 0.14 1.17 0.11 1.17 0.07 1.15 0.05 1.15 0.01 1.14 0 0zm0 0l-1.42 0 0 0 0 0 0 0 0 0 0 0 0 0 0 0 0 0 0 0 0 0 0 0 0 0 0 0 0 0 0 0 0 0 0 0 0 0 0 0 0 0 0 0 -1.41 0 2.83 0zm-14.13 23.65l-0.99 -2.66 0 0 0.7 -0.27 0.68 -0.3 0.66 -0.32 0.64 -0.35 0.63 -0.37 0.61 -0.4 0.58 -0.42 0.57 -0.45 0.55 -0.47 0.53 -0.49 0.51 -0.51 0.5 -0.55 0.47 -0.56 0.45 -0.59 0.43 -0.62 0.41 -0.64 0.39 -0.66 0.37 -0.69 0.34 -0.72 0.32 -0.74 0.3 -0.76 0.28 -0.79 0.25 -0.82 0.23 -0.84 0.2 -0.87 0.18 -0.89 0.15 -0.92 0.13 -0.95 0.1 -0.96 0.07 -1 0.04 -1.02 0.02 -1.05 2.83 0 -0.01 1.13 -0.05 1.1 -0.08 1.08 -0.1 1.05 -0.14 1.04 -0.17 1.01 -0.19 0.98 -0.23 0.96 -0.25 0.94 -0.28 0.91 -0.31 0.89 -0.34 0.87 -0.37 0.84 -0.39 0.81 -0.42 0.79 -0.45 0.77 -0.47 0.73 -0.5 0.71 -0.52 0.69 -0.55 0.66 -0.58 0.63 -0.59 0.6 -0.62 0.58 -0.64 0.54 -0.67 0.52 -0.68 0.49 -0.71 0.46 -0.72 0.43 -0.75 0.41 -0.76 0.37 -0.78 0.35 -0.81 0.31 0 0zm-32.73 -5.92l1.42 -2.45 0 0 1.13 0.63 1.12 0.61 1.11 0.57 1.1 0.55 1.09 0.51 1.09 0.48 1.07 0.46 1.06 0.42 1.06 0.39 1.04 0.36 1.03 0.33 1.02 0.3 1.01 0.28 0.99 0.24 0.98 0.21 0.98 0.19 0.95 0.15 0.94 0.13 0.93 0.1 0.91 0.07 0.9 0.04 0.89 0.02 0.86 -0.01 0.86 -0.04 0.83 -0.07 0.82 -0.09 0.8 -0.12 0.79 -0.15 0.77 -0.17 0.75 -0.2 0.73 -0.23 0.71 -0.25 0.99 2.66 -0.82 0.29 -0.83 0.26 -0.86 0.22 -0.87 0.2 -0.89 0.16 -0.9 0.14 -0.92 0.11 -0.92 0.07 -0.95 0.04 -0.96 0.02 -0.97 -0.02 -0.98 -0.05 -1 -0.07 -1.01 -0.11 -1.02 -0.14 -1.03 -0.17 -1.04 -0.2 -1.06 -0.22 -1.06 -0.26 -1.07 -0.3 -1.09 -0.32 -1.09 -0.35 -1.1 -0.38 -1.12 -0.41 -1.11 -0.45 -1.13 -0.47 -1.14 -0.51 -1.14 -0.53 -1.15 -0.57 -1.16 -0.6 -1.16 -0.63 -1.18 -0.67 0 0zm-356.57 -205.96l1.42 -2.45 0 0 14.28 8.25 13.67 7.9 13.1 7.57 12.58 7.26 12.09 6.99 11.65 6.73 11.24 6.49 10.88 6.29 10.55 6.09 10.27 5.94 10.03 5.79 9.82 5.67 9.67 5.59 9.54 5.51 9.46 5.46 9.42 5.45 9.42 5.44 9.46 5.46 9.55 5.51 9.66 5.59 9.83 5.67 10.03 5.79 10.27 5.94 10.56 6.09 10.88 6.29 11.25 6.49 11.65 6.73 12.1 6.99 12.59 7.27 13.11 7.57 13.68 7.9 14.28 8.25 -1.42 2.45 -14.28 -8.25 -13.68 -7.89 -13.11 -7.58 -12.59 -7.26 -12.1 -6.99 -11.65 -6.73 -11.25 -6.5 -10.88 -6.28 -10.56 -6.1 -10.27 -5.93 -10.03 -5.79 -9.83 -5.68 -9.66 -5.58 -9.55 -5.51 -9.46 -5.47 -9.42 -5.44 -9.42 -5.44 -9.46 -5.46 -9.54 -5.52 -9.67 -5.58 -9.82 -5.67 -10.03 -5.8 -10.27 -5.93 -10.55 -6.1 -10.88 -6.28 -11.24 -6.5 -11.65 -6.72 -12.09 -6.99 -12.58 -7.27 -13.1 -7.57 -13.67 -7.9 -14.28 -8.25 0 0zm-76.84 -44.4l1.42 -2.45 0 0 13.47 7.78 11.33 6.55 9.34 5.39 7.47 4.32 5.76 3.33 4.19 2.42 2.76 1.59 1.47 0.85 -1.09 2.65 -0.67 -0.39 -1.53 -0.88 -2.24 -1.3 -2.82 -1.62 -3.24 -1.88 -3.53 -2.04 -3.67 -2.12 -3.67 -2.12 -3.53 -2.04 -3.25 -1.87 -2.81 -1.63 -2.24 -1.29 -1.53 -0.89 -0.68 -0.39 1.76 -2.26 1.47 0.85 2.76 1.59 4.19 2.42 5.76 3.33 7.47 4.32 9.33 5.39 11.33 6.55 13.48 7.79 -1.42 2.45 -13.48 -7.78 -11.33 -6.55 -9.33 -5.39 -7.47 -4.32 -5.76 -3.33 -4.19 -2.42 -2.76 -1.59 -1.47 -0.85 1.09 -2.65 0.67 0.39 1.53 0.88 2.24 1.3 2.81 1.62 3.25 1.88 3.53 2.03 3.67 2.13 3.67 2.12 3.53 2.04 3.24 1.87 2.82 1.63 2.24 1.29 1.53 0.89 0.67 0.38 -1.75 2.27 -1.47 -0.85 -2.76 -1.59 -4.19 -2.42 -5.76 -3.33 -7.47 -4.32 -9.33 -5.39 -11.34 -6.55 -13.47 -7.79 0 0zm-32.01 -31.15l2.38 -1.56 0 0 0.76 1.15 0.77 1.13 0.8 1.14 0.81 1.11 0.82 1.12 0.84 1.1 0.86 1.09 0.87 1.08 0.89 1.07 0.9 1.06 0.91 1.04 0.93 1.04 0.94 1.02 0.96 1 0.97 0.99 0.98 0.98 0.99 0.96 1 0.94 1.01 0.93 1.03 0.91 1.03 0.89 1.05 0.87 1.05 0.86 1.07 0.84 1.07 0.81 1.08 0.8 1.09 0.78 1.1 0.75 1.11 0.73 1.11 0.71 1.12 0.69 1.13 0.67 -1.42 2.45 -1.17 -0.69 -1.17 -0.71 -1.15 -0.74 -1.15 -0.76 -1.13 -0.78 -1.13 -0.8 -1.12 -0.82 -1.11 -0.85 -1.1 -0.86 -1.09 -0.89 -1.07 -0.9 -1.07 -0.92 -1.06 -0.94 -1.04 -0.95 -1.03 -0.97 -1.02 -0.99 -1.01 -1 -1 -1.02 -0.98 -1.04 -0.97 -1.04 -0.95 -1.06 -0.94 -1.08 -0.92 -1.08 -0.92 -1.1 -0.89 -1.11 -0.88 -1.12 -0.86 -1.14 -0.85 -1.14 -0.83 -1.15 -0.82 -1.16 -0.8 -1.17 -0.78 -1.17 0 0zm-13.33 -38.25l2.84 0 0 0 0.01 1.06 0.05 1.07 0.07 1.08 0.09 1.09 0.13 1.1 0.15 1.11 0.18 1.12 0.21 1.13 0.23 1.13 0.26 1.14 0.28 1.15 0.31 1.16 0.33 1.16 0.36 1.16 0.38 1.17 0.41 1.17 0.43 1.17 0.45 1.18 0.47 1.17 0.5 1.18 0.52 1.18 0.54 1.18 0.56 1.17 0.58 1.18 0.61 1.17 0.62 1.17 0.64 1.17 0.66 1.17 0.68 1.16 0.71 1.15 0.71 1.15 0.74 1.14 -2.38 1.56 -0.75 -1.18 -0.74 -1.18 -0.72 -1.19 -0.7 -1.19 -0.69 -1.2 -0.66 -1.21 -0.64 -1.2 -0.62 -1.21 -0.6 -1.22 -0.58 -1.21 -0.56 -1.22 -0.54 -1.22 -0.51 -1.22 -0.49 -1.22 -0.47 -1.21 -0.45 -1.22 -0.42 -1.22 -0.4 -1.21 -0.37 -1.22 -0.35 -1.21 -0.32 -1.2 -0.3 -1.2 -0.27 -1.2 -0.24 -1.19 -0.22 -1.19 -0.19 -1.18 -0.16 -1.18 -0.13 -1.16 -0.1 -1.16 -0.08 -1.15 -0.05 -1.15 -0.01 -1.13 0 0zm0 -0.07l2.84 0 0 0 0 0.01 0 0 0 0.01 0 0 0 0.01 0 0 0 0.01 0 0 0 0 0 0.01 0 0 0 0 0 0 0 0.01 0 0 0 0 0 0 0 0 0 0 0 0.01 0 0 0 0 0 0 0 0 0 0 0 0 -1.42 0 0 0 0 0 0 0 0 0 0 0 0 0 0 0 0 0 0 0 0 0 0 0 -1.42 0 0 0 0 0 0 0 0 0 0 0 0 0 0 -0.01 0 0 0 0 0 0 0 0 0 0 0 -0.01 0 0 0 0 0 0 0 -0.01 0 0 0 0 0 -0.01 0 0 0 -0.01 0 0 0 -0.01 0 0 0 -0.01 0 0zm14.03 -23.72l0.99 2.66 0 0 -0.7 0.28 -0.68 0.3 -0.66 0.32 -0.64 0.36 -0.62 0.37 -0.61 0.4 -0.58 0.42 -0.57 0.45 -0.54 0.47 -0.53 0.5 -0.51 0.52 -0.48 0.55 -0.47 0.57 -0.45 0.59 -0.42 0.62 -0.41 0.65 -0.38 0.67 -0.37 0.69 -0.34 0.72 -0.32 0.74 -0.29 0.77 -0.27 0.8 -0.25 0.82 -0.23 0.84 -0.2 0.87 -0.17 0.89 -0.15 0.92 -0.12 0.94 -0.1 0.97 -0.07 0.99 -0.04 1.02 -0.01 1.04 -2.84 0 0.01 -1.12 0.05 -1.09 0.08 -1.08 0.1 -1.05 0.13 -1.03 0.17 -1.01 0.19 -0.98 0.22 -0.96 0.25 -0.94 0.28 -0.91 0.3 -0.89 0.33 -0.87 0.37 -0.85 0.38 -0.81 0.42 -0.8 0.44 -0.76 0.46 -0.75 0.5 -0.72 0.52 -0.68 0.54 -0.67 0.57 -0.63 0.59 -0.61 0.61 -0.58 0.64 -0.55 0.66 -0.53 0.69 -0.49 0.7 -0.47 0.73 -0.44 0.74 -0.4 0.77 -0.38 0.78 -0.35 0.81 -0.32 0 0zm32.73 5.85l-1.42 2.46 0 0 -1.13 -0.64 -1.12 -0.6 -1.11 -0.57 -1.1 -0.55 -1.09 -0.51 -1.08 -0.48 -1.08 -0.45 -1.06 -0.42 -1.06 -0.38 -1.04 -0.36 -1.03 -0.33 -1.02 -0.3 -1.01 -0.27 -0.99 -0.24 -0.99 -0.21 -0.97 -0.18 -0.95 -0.15 -0.95 -0.13 -0.93 -0.09 -0.91 -0.07 -0.9 -0.04 -0.88 -0.01 -0.87 0.01 -0.85 0.04 -0.84 0.07 -0.81 0.1 -0.81 0.12 -0.78 0.15 -0.77 0.17 -0.75 0.2 -0.73 0.22 -0.71 0.25 -0.99 -2.66 0.81 -0.28 0.84 -0.26 0.85 -0.23 0.87 -0.19 0.89 -0.17 0.9 -0.14 0.91 -0.1 0.93 -0.08 0.95 -0.05 0.95 -0.01 0.97 0.01 0.99 0.04 1 0.08 1 0.1 1.03 0.14 1.03 0.16 1.04 0.2 1.06 0.22 1.06 0.26 1.08 0.29 1.08 0.31 1.1 0.35 1.1 0.38 1.11 0.41 1.12 0.44 1.13 0.48 1.14 0.5 1.14 0.54 1.15 0.56 1.16 0.6 1.17 0.63 1.17 0.66 0 0z"/>
</g>
<g>
<path class="fil11" d="M666.72 265.27l0 71.33 0 13.5c11.84,6.84 24.35,14.06 37.67,21.76 12.29,7.09 23.43,8.83 31.53,5.81 8.07,-3 13.2,-10.61 13.2,-22.32 0,-3.58 -0.48,-7.33 -1.38,-11.16 -2.03,-8.7 -6.22,-17.82 -11.82,-26.37 -8.1,-12.37 -19.24,-23.68 -31.53,-30.78 -13.32,-7.7 -25.83,-14.93 -37.67,-21.77z"/>
<path id="1" class="fil9" d="M665.3 336.6l0 -71.33 2.84 0 0 71.33 0 0 -2.84 0zm2.84 0c0,0.79 -0.64,1.42 -1.42,1.42 -0.79,0 -1.42,-0.63 -1.42,-1.42l2.84 0zm-2.84 13.5l0 -13.5 2.84 0 0 13.5 -2.13 1.23 -0.71 -1.23zm2.84 0c0,0.78 -0.64,1.42 -1.42,1.42 -0.79,0 -1.42,-0.64 -1.42,-1.42l2.84 0zm36.96 20.53l-1.42 2.45 0 0.01 -1.24 -0.72 -1.24 -0.72 -1.24 -0.72 -1.23 -0.71 -1.23 -0.71 -1.22 -0.7 -1.22 -0.71 -1.22 -0.7 -1.21 -0.7 -1.2 -0.69 -1.2 -0.7 -1.2 -0.69 -1.19 -0.69 -1.19 -0.68 -1.18 -0.68 -1.18 -0.68 -1.17 -0.68 -1.17 -0.68 -1.17 -0.67 -1.16 -0.67 -1.16 -0.67 -1.15 -0.67 -1.15 -0.66 -1.14 -0.66 -1.14 -0.66 -1.14 -0.65 -1.13 -0.66 -1.13 -0.65 -1.12 -0.65 -1.12 -0.65 -1.12 -0.64 -1.11 -0.64 1.42 -2.46 1.11 0.64 1.12 0.65 1.12 0.64 1.12 0.65 1.13 0.65 1.13 0.66 1.14 0.65 1.14 0.66 1.14 0.66 1.15 0.67 1.15 0.66 1.16 0.67 1.16 0.67 1.17 0.67 1.17 0.68 1.17 0.68 1.18 0.68 1.18 0.68 1.19 0.69 1.19 0.69 1.2 0.69 1.2 0.69 1.2 0.7 1.21 0.69 1.22 0.71 1.22 0.7 1.22 0.71 1.23 0.7 1.23 0.72 1.24 0.71 1.24 0.72 1.24 0.72 0 0zm30.32 5.71l0.99 2.66 0 0 -0.82 0.29 -0.83 0.26 -0.86 0.22 -0.87 0.2 -0.89 0.16 -0.9 0.14 -0.92 0.11 -0.92 0.07 -0.95 0.04 -0.96 0.02 -0.97 -0.02 -0.98 -0.05 -1 -0.07 -1.01 -0.11 -1.02 -0.14 -1.03 -0.17 -1.04 -0.2 -1.06 -0.22 -1.06 -0.26 -1.07 -0.3 -1.09 -0.32 -1.09 -0.35 -1.1 -0.38 -1.12 -0.41 -1.11 -0.45 -1.13 -0.47 -1.14 -0.51 -1.14 -0.53 -1.15 -0.57 -1.16 -0.6 -1.16 -0.63 -1.18 -0.67 1.42 -2.45 1.13 0.63 1.12 0.61 1.11 0.57 1.1 0.55 1.09 0.51 1.09 0.48 1.07 0.46 1.06 0.42 1.06 0.39 1.04 0.36 1.03 0.33 1.02 0.3 1.01 0.28 0.99 0.24 0.98 0.21 0.98 0.19 0.95 0.15 0.94 0.13 0.93 0.1 0.91 0.07 0.9 0.04 0.89 0.02 0.86 -0.01 0.86 -0.04 0.83 -0.07 0.82 -0.09 0.8 -0.12 0.79 -0.15 0.77 -0.17 0.75 -0.2 0.73 -0.23 0.71 -0.25 0 0zm12.29 -20.99l2.83 0 0 0 -0.01 1.13 -0.05 1.1 -0.08 1.08 -0.1 1.05 -0.14 1.04 -0.17 1.01 -0.19 0.98 -0.23 0.96 -0.25 0.94 -0.28 0.91 -0.31 0.89 -0.34 0.87 -0.37 0.84 -0.39 0.81 -0.42 0.79 -0.45 0.77 -0.47 0.73 -0.5 0.71 -0.52 0.69 -0.55 0.66 -0.58 0.63 -0.59 0.6 -0.62 0.58 -0.64 0.54 -0.67 0.52 -0.68 0.49 -0.71 0.46 -0.72 0.43 -0.75 0.41 -0.76 0.37 -0.78 0.35 -0.81 0.31 -0.99 -2.66 0.7 -0.27 0.68 -0.3 0.66 -0.32 0.64 -0.35 0.63 -0.37 0.61 -0.4 0.58 -0.42 0.57 -0.45 0.55 -0.47 0.53 -0.49 0.51 -0.51 0.5 -0.55 0.47 -0.56 0.45 -0.59 0.43 -0.62 0.41 -0.64 0.39 -0.66 0.37 -0.69 0.34 -0.72 0.32 -0.74 0.3 -0.76 0.28 -0.79 0.25 -0.82 0.23 -0.84 0.2 -0.87 0.18 -0.89 0.15 -0.92 0.13 -0.95 0.1 -0.96 0.07 -1 0.04 -1.02 0.02 -1.05 0 0zm-1.35 -10.84l2.77 -0.64 0 0 0.08 0.36 0.08 0.37 0.08 0.37 0.08 0.36 0.08 0.37 0.07 0.37 0.07 0.36 0.07 0.37 0.06 0.36 0.06 0.36 0.06 0.37 0.06 0.36 0.05 0.36 0.05 0.36 0.05 0.36 0.05 0.36 0.04 0.36 0.04 0.36 0.04 0.36 0.04 0.35 0.03 0.36 0.03 0.36 0.03 0.35 0.02 0.36 0.02 0.35 0.02 0.35 0.02 0.35 0.01 0.36 0.01 0.35 0.01 0.35 0 0.34 0 0.35 -2.83 0 -0.01 -0.32 0 -0.32 -0.01 -0.33 -0.01 -0.33 -0.01 -0.33 -0.01 -0.33 -0.02 -0.33 -0.02 -0.33 -0.02 -0.33 -0.03 -0.34 -0.03 -0.33 -0.03 -0.34 -0.03 -0.33 -0.04 -0.34 -0.04 -0.34 -0.04 -0.34 -0.04 -0.34 -0.05 -0.34 -0.05 -0.34 -0.05 -0.34 -0.05 -0.35 -0.06 -0.34 -0.06 -0.35 -0.06 -0.34 -0.06 -0.34 -0.07 -0.35 -0.07 -0.35 -0.07 -0.35 -0.07 -0.35 -0.08 -0.34 -0.08 -0.36 -0.08 -0.35 0 0zm0 0c-0.18,-0.76 0.3,-1.52 1.06,-1.7 0.76,-0.18 1.53,0.29 1.71,1.06l-2.77 0.64zm-11.63 -25.92l2.38 -1.55 0 0 0.52 0.81 0.52 0.82 0.52 0.82 0.5 0.83 0.49 0.82 0.48 0.83 0.48 0.83 0.47 0.84 0.45 0.83 0.45 0.84 0.44 0.84 0.42 0.84 0.42 0.84 0.41 0.84 0.39 0.85 0.39 0.84 0.38 0.85 0.36 0.85 0.36 0.84 0.34 0.85 0.34 0.85 0.32 0.85 0.31 0.84 0.3 0.85 0.28 0.84 0.28 0.85 0.26 0.84 0.25 0.84 0.24 0.84 0.23 0.84 0.21 0.84 0.21 0.84 -2.77 0.64 -0.19 -0.79 -0.21 -0.81 -0.21 -0.8 -0.23 -0.8 -0.24 -0.81 -0.26 -0.81 -0.26 -0.81 -0.28 -0.81 -0.28 -0.82 -0.3 -0.81 -0.31 -0.82 -0.32 -0.82 -0.34 -0.81 -0.34 -0.82 -0.35 -0.82 -0.37 -0.82 -0.37 -0.82 -0.38 -0.81 -0.4 -0.82 -0.4 -0.82 -0.42 -0.81 -0.42 -0.82 -0.44 -0.81 -0.44 -0.81 -0.45 -0.81 -0.46 -0.81 -0.47 -0.81 -0.48 -0.8 -0.49 -0.8 -0.5 -0.8 -0.5 -0.79 -0.52 -0.8 0 0zm-31.05 -30.32l1.42 -2.46 0 0 1.17 0.69 1.17 0.72 1.15 0.74 1.15 0.76 1.14 0.78 1.12 0.81 1.12 0.83 1.11 0.85 1.1 0.86 1.09 0.89 1.08 0.91 1.07 0.92 1.05 0.95 1.05 0.96 1.03 0.97 1.02 0.99 1.01 1.01 0.99 1.02 0.99 1.04 0.96 1.05 0.96 1.07 0.94 1.07 0.92 1.09 0.91 1.1 0.9 1.11 0.88 1.12 0.86 1.14 0.85 1.14 0.83 1.15 0.81 1.15 0.8 1.17 0.78 1.17 -2.38 1.55 -0.76 -1.14 -0.77 -1.13 -0.79 -1.13 -0.81 -1.12 -0.83 -1.11 -0.84 -1.1 -0.86 -1.09 -0.87 -1.08 -0.88 -1.07 -0.9 -1.07 -0.92 -1.04 -0.93 -1.04 -0.94 -1.02 -0.95 -1.01 -0.97 -0.99 -0.98 -0.99 -0.99 -0.96 -1.01 -0.95 -1.01 -0.93 -1.03 -0.92 -1.03 -0.89 -1.05 -0.88 -1.05 -0.86 -1.07 -0.84 -1.07 -0.82 -1.08 -0.8 -1.09 -0.78 -1.1 -0.76 -1.11 -0.73 -1.11 -0.72 -1.12 -0.68 -1.13 -0.67 0 0zm-35.54 -23l-2.84 0 2.13 -1.23 1.11 0.65 1.12 0.64 1.12 0.65 1.12 0.65 1.13 0.65 1.13 0.65 1.14 0.66 1.14 0.66 1.14 0.66 1.15 0.66 1.15 0.67 1.16 0.67 1.16 0.67 1.17 0.67 1.17 0.68 1.17 0.68 1.18 0.68 1.18 0.68 1.19 0.69 1.19 0.69 1.2 0.69 1.2 0.69 1.2 0.7 1.21 0.7 1.22 0.7 1.22 0.7 1.22 0.71 1.23 0.71 1.23 0.71 1.24 0.72 1.24 0.71 1.24 0.72 -1.42 2.46 -1.24 -0.72 -1.24 -0.72 -1.24 -0.71 -1.23 -0.71 -1.23 -0.71 -1.22 -0.71 -1.22 -0.7 -1.22 -0.71 -1.21 -0.7 -1.2 -0.69 -1.2 -0.7 -1.2 -0.69 -1.19 -0.69 -1.19 -0.68 -1.18 -0.69 -1.18 -0.68 -1.17 -0.67 -1.17 -0.68 -1.17 -0.67 -1.16 -0.68 -1.16 -0.66 -1.15 -0.67 -1.15 -0.66 -1.14 -0.66 -1.14 -0.66 -1.14 -0.66 -1.13 -0.65 -1.13 -0.66 -1.12 -0.65 -1.12 -0.64 -1.12 -0.65 -1.11 -0.64 2.13 -1.23zm-2.13 1.23c-0.68,-0.39 -0.91,-1.26 -0.52,-1.94 0.39,-0.68 1.26,-0.91 1.94,-0.52l-1.42 2.46z"/>
</g>
<path class="fil12" d="M710.04 319.45c0,-6.28 -3.75,-13.5 -8.38,-16.1 -4.63,-2.61 -8.39,0.38 -8.39,6.67 0,6.28 3.76,13.5 8.39,16.1 4.63,2.61 8.38,-0.38 8.38,-6.67zm-8.38 12.36c-4.2,-2.36 -8.01,-2.19 -10.75,0 -2,1.6 -3.45,4.27 -4.08,7.8 -0.45,2.49 0.67,4.88 2.88,6.12 3.98,2.24 7.96,4.48 11.94,6.72 3.46,1.94 6.91,3.88 10.37,5.82 1,0.57 2.17,0.51 3.11,-0.17 0.95,-0.67 1.39,-1.75 1.18,-2.89 -0.71,-3.89 -2.07,-7.78 -3.91,-11.32 -2.74,-5.27 -6.55,-9.72 -10.74,-12.08z"/>
</g>
</g>
</svg>